<?xml version="1.0" encoding="utf-8"?>
<!-- Generator: Adobe Illustrator 26.0.1, SVG Export Plug-In . SVG Version: 6.00 Build 0)  -->
<svg version="1.1" id="_x3C_Layer_x3E_" xmlns="http://www.w3.org/2000/svg" xmlns:xlink="http://www.w3.org/1999/xlink" x="0px"
	 y="0px" viewBox="0 0 2975 1700" style="enable-background:new 0 0 2975 1700;" xml:space="preserve">
<style type="text/css">
	.st0{fill:#FFFFFF;}
	.st1{opacity:0.2;fill:#17D4FF;}
	.st2{opacity:0.2;fill:#0005D0;}
	.st3{fill:#EFD6BD;}
	.st4{fill:#E69D43;}
	.st5{fill:#CA5F00;}
	.st6{fill:#F9DDBF;}
	.st7{fill:#E8C4A3;}
	.st8{fill:#82B378;}
	.st9{fill:#A8D29F;}
	.st10{fill:#A8D39F;}
	.st11{fill:#2B478B;}
	.st12{fill:#EA9E6A;}
	.st13{fill:#D88D59;}
	.st14{fill:#233862;}
	.st15{fill:#EE9849;}
	.st16{fill:#B24940;}
	.st17{fill:#C65447;}
	.st18{fill:#D8772E;}
	.st19{fill:#F1A34F;}
	.st20{fill:#EC9746;}
	.st21{fill:#FF1717;}
	.st22{fill:#2C3A64;}
	.st23{fill:#365DA4;}
	.st24{fill:#2D427C;}
	.st25{fill:#EA8E50;}
	.st26{fill:#FFB07B;}
	.st27{fill:#A53934;}
	.st28{fill:#B64C41;}
	.st29{fill:#DDB897;}
	.st30{fill:#FFBB78;}
	.st31{fill:#5CF8FF;}
	.st32{fill:#FFB27D;}
	.st33{fill:#E8945B;}
	.st34{fill:#FF5C5C;}
	.st35{fill:#D86713;}
	.st36{opacity:0.4;fill:#D86713;}
	.st37{fill:#2E3552;}
</style>
<rect class="st0" width="2975" height="1700"/>
<g>
	<path class="st1" d="M2677.79,1072.57c-45.1,31.29-118.82,40.11-202.37,25.69c-134.67-23.23-257.18-100.57-282.53-140.56
		c-19.47-30.62-23.95-67.47-19.08-106.37c7.13-57.13,96.86-328.65,272.83-369.86c63.6-14.89,147.65-5.4,240.01,81.77
		c58.55,54.9,79.44,132.24,81.57,212.1C2771.09,878.47,2736.98,1031.56,2677.79,1072.57z"/>
	<path class="st2" d="M2576.46,1493.38H377.55c-10.69-101.98,4.58-237.86,49.94-343.8c60.69-141.92,189.15-273.96,457.4-271.3
		c576.36,5.71,532.13-307,935.58-327.01c164.31-8.15,264.49,139.41,234.94,350.21C2005.42,1258.09,2569.15,999.57,2576.46,1493.38z"
		/>
	<g>
		<path class="st3" d="M1417.31,728.04h-60.8c-15.99,0-29.08,13.09-29.08,29.08v50.08c0,15.99,13.08,29.08,29.08,29.08h60.8
			c15.99,0,29.08-13.09,29.08-29.08v-50.08C1446.38,741.12,1433.3,728.04,1417.31,728.04z"/>
		<g>
			<polygon class="st4" points="1338.95,759.4 1421.2,752.3 1378.24,780.21 			"/>
			<polygon class="st5" points="1381.06,824.45 1421.2,752.3 1378.16,780.08 			"/>
		</g>
	</g>
	<g>
		<g>
			<path class="st6" d="M1456.15,904.54h-127.18c0,0-56.38,3.82-36.14,98.49c20.24,94.67,86.74,286.54,66.5,344.58h141.68
				L1456.15,904.54z"/>
			<path class="st7" d="M1743.44,1251.01c-16.84-82.66-43.94-222.08-58.31-296.37c-5.63-29.1-31.11-50.11-60.74-50.11h-200.05
				c-38.4,0-67.53,34.62-60.96,72.45l55.41,319.32c5.59,32.2,35.25,54.5,67.74,50.92l203.07-22.37
				C1725.77,1320.87,1750.71,1286.68,1743.44,1251.01z"/>
		</g>
		<g>
			<path class="st8" d="M1206.36,1365.85c-4.04,46.19-30.12,60.45-41.59,59.22c-11.47-1.22-78.55-26.83-80-17.44
				c-1.46,9.4,38.91,40.1,67.18,41.53c0,0-53.38,58.87-88.85,41.88c-35.48-16.99-38.5-43.92-60.62-54.02
				c-22.12-10.1-40.99-10.07-31.86,0.23c9.13,10.3,49.16,20.31,61.8,42.68c2.99,5.28,5.9,10.15,8.13,14.45l-74.7-0.15
				c-23.69-11.77-43.64-28-45.13-45.5c-0.12-1.34-0.22-2.61-0.32-3.83c-2.3-26.92-2.3-26.92-2.3-26.92s-38.36-44.74-18.42-81.86
				c3.31-6.17,8.23-12.12,15.2-17.63c0,0,35.75-21.65,64.9-19.88c0,0-22.59,37.88-28.95,60.39c-2.25,7.93-2.47,13.96,1.01,15.75
				c3.81,1.97,8.74-3.75,13.84-12.91c12.78-22.95,26.62-67.58,26.62-67.58s21.49-2.09,45.96-2.4c10.97-0.14,22.54,0.07,33.04,0.99
				c11.59,1.02,21.85,2.9,28.53,6.11c0,0-1.46,1.19-3.91,3.25c-3.65,3.06-9.49,8.01-15.99,13.76
				c-19.29,17.06-44.36,41.12-34.99,43.29c7.59,1.76,31.4-12.39,52.59-26.43c19.73-13.06,37.17-26.04,37.17-26.04
				S1210.4,1319.66,1206.36,1365.85z"/>
			<g>
				<path class="st8" d="M1169.16,1367.1c0,0-205.65-7.92-251.06,50.89c0,0-10.04,30.08-40.95,57.47l-4.82,13.13
					c0,0,35.63-37.57,48.39-39.85C920.72,1448.74,900.78,1375.88,1169.16,1367.1z"/>
				<path class="st8" d="M885.79,1475.12c-1.76,1.93-4.4,4.56-8.18,8.05l-0.08,0.08c-1.31,1.21-2.58,2.52-3.82,3.91
					c-1.91,2.11-3.74,4.42-5.48,6.88l-9.61-0.02c9.9-12.18,18.53-18.57,18.53-18.57s0.01-0.01,0.03-0.02
					C877.92,1474.99,895.64,1464.28,885.79,1475.12z"/>
			</g>
		</g>
		<g>
			<path class="st9" d="M693.61,1341.46c0,0,82.97-46.46,44.25-109.52c0,0-30.98-38.72-64.16-48.67c0,0,17.7,94.03,0,96.24
				c-17.7,2.21-12.17-106.2-12.17-106.2s-87.39-42.04-121.69-38.72c0,0,54.21,91.82,36.51,89.6c-17.7-2.21-78.54-95.14-78.54-95.14
				s-89.61-16.59-103.99,36.51c-14.38,53.1,8.85,79.65,22.12,82.97c13.28,3.32,98.45,2.21,96.24,13.27
				c-2.21,11.06-59.74,28.76-91.82,18.81c0,0,35.4,87.39,81.86,82.97c46.46-4.43,60.84-33.19,89.61-35.4
				c28.76-2.21,49.78,5.53,35.4,13.27c-14.38,7.74-63.05,2.54-86.29,22.29c-23.23,19.75-42.04,31.92,1.11,40.77
				c43.14,8.85,120.58,3.32,136.07-29.87C693.61,1341.46,693.61,1341.46,693.61,1341.46z"/>
			<g>
				<path class="st8" d="M434.75,1182.17c0,0,232.31,75.22,258.86,159.3c0,0-1.11,37.61,22.12,80.75v16.59
					c0,0-24.34-56.42-37.61-64.16C678.12,1374.65,730.11,1301.64,434.75,1182.17z"/>
				<path class="st8" d="M737.25,1493.87l-13.27-0.03c-0.42-19.2-2.64-40.76-9.19-57.18c0-0.01,0-0.01,0-0.01
					c-0.82-2.06-1.7-4.03-2.67-5.91c-0.01-0.02-0.02-0.04-0.03-0.06c-2.75-5.39-4.62-9.37-5.79-12.25l-0.01-0.01
					c-6.79-16.65,9.44,3.8,9.44,3.8S735.2,1451.79,737.25,1493.87z"/>
			</g>
		</g>
		<g>
			<path class="st10" d="M825.6,1277.39c0,0-109.37-61.25-58.33-144.37c0,0,40.83-51.04,84.58-64.16c0,0-23.33,123.95,0,126.87
				c23.33,2.92,16.04-139.99,16.04-139.99s115.2-55.41,160.41-51.04c0,0-71.45,121.03-48.12,118.12
				c23.33-2.92,103.53-125.41,103.53-125.41s118.12-21.87,137.07,48.12s-11.67,104.99-29.16,109.37s-129.78,2.92-126.87,17.5
				c2.92,14.58,78.74,37.91,121.03,24.79c0,0-46.66,115.2-107.91,109.37c-61.24-5.83-80.2-43.75-118.12-46.66
				c-37.91-2.92-65.62,7.29-46.66,17.5c18.96,10.21,83.12,3.34,113.74,29.38c30.62,26.03,55.41,42.07-1.46,53.74
				c-56.87,11.67-158.95,4.38-179.36-39.37C825.6,1277.39,825.6,1277.39,825.6,1277.39z"/>
			<g>
				<path class="st8" d="M1166.83,1067.4c0,0-306.23,99.16-341.22,209.98c0,0,1.46,49.58-29.16,106.45v21.87
					c0,0,32.08-74.37,49.58-84.58C846.02,1321.13,777.48,1224.89,1166.83,1067.4z"/>
				<path class="st8" d="M808.89,1378.8c-0.01,0.02-0.02,0.03-0.02,0.04c-1.55,3.81-4.01,9.07-7.65,16.19
					c-0.01,0.02-0.02,0.03-0.03,0.04c-1.27,2.47-2.42,5.07-3.5,7.77c-0.01,0-0.01,0.01-0.01,0.02
					c-10.48,26.27-12.56,62.53-12.17,91.1l-17.57-0.04c-2.1-63.64,28.49-110.1,28.49-110.1s0,0,0.01-0.01
					C796.91,1383.24,817.73,1357.14,808.89,1378.8z"/>
			</g>
		</g>
		<g>
			<path class="st11" d="M1794.75,991.84l33.19,348.96c0,0-37.71,40.26-186.97,54.06c-3.72,0.37-7.5,0.71-11.38,1.01
				c-85.67,6.92-117.47-103.6-128.59-206.76c-9.5-87.98-3.94-170.6-3.94-170.6C1697.06,934.3,1794.75,991.84,1794.75,991.84z"/>
			<path class="st11" d="M2120.44,1269.4c-29.63,13.75-205.85,25.3-222.77,20.43c-8.68-2.51-45.01-34.51-81.56-73.87
				c-0.03-0.02-0.03-0.02-0.03-0.02c-34.59-37.24-69.46-81.06-81.22-112.6c-24.19-64.81-3.4-122.36-3.4-122.36
				s44.96-0.19,63.29,10.88c18.33,11.09,123.14,204.11,137.15,209.2c14.01,5.12,180.03,14.61,199.04,23.63
				C2130.93,1224.68,2150.04,1255.65,2120.44,1269.4z"/>
			<path class="st12" d="M1690.77,980.54l-0.04,10.91c0,0,3.02,34.12-38.99,39.17c-42.02,5.06-73.88-13.19-72.78-39.53
				c3.75-20.4,7.89-34.4,8.14-51.28c0.09-6.27-0.35-12.92-1.52-20.43l81.43-1.75l23.99,3.88L1690.77,980.54z"/>
			<path class="st13" d="M1690.99,921.51l-0.22,59.03c-8.64,4.04-18.4,6.5-29.34,6.52c-37.42,0.06-74.67-60.17-75.85-67.68
				L1690.99,921.51z"/>
			<path class="st12" d="M1695.79,950.18c0,0-104.26,21.23-116.48-43.9c-12.22-65.13-33.91-106.25,32.14-122.56
				c66.05-16.31,83.68,6.11,93.05,26.86C1713.87,831.33,1722.59,942.98,1695.79,950.18z"/>
			<path class="st14" d="M1724.7,762.15c0,0-29.09-2.19-63.41-17.05c-27.86-12.06-62.96,1.32-74.36,7.35
				c0.3-1.84,1.03-4.35,2.77-6.87c0,0-5.11,3.64-5.86,8.71c-0.53,0.39-0.76,0.66-0.63,0.75c0,0-5.8-1.05-9.53,0.63
				c0,0,2.61-0.38,3.54,1.3c0.1,0.18,0.25,0.33,0.42,0.46c-43.4,21.05-47.3,89.69-33.3,105.55c16.84,19.08,37.07,62.08,37.07,62.08
				s7.34-10.18,4.25-26.99c-3.08-16.81,11.44-16.83,29.77-24.5c18.33-7.67,3.01-29.05,19.04-42.07
				c16.03-13.02,74.89-5.46,74.11-15.4C1730.43,808.12,1724.71,764.39,1724.7,762.15z"/>
			<path class="st14" d="M1640.98,1394.86c-3.72,0.37-7.5,0.71-11.38,1.01c-85.67,6.92-117.47-103.6-128.59-206.76
				C1511.36,1194.2,1651.8,1265.68,1640.98,1394.86z"/>
			<path class="st12" d="M1564.98,1298.59c0,0,30.21-19.61,40.21-17.82c10,1.79,50.89,13.79,56.51,20.48
				c8.76,10.43,24.23,26.99,15.42,28.75c-8.81,1.76-86.59,5.66-95.56,4.89C1572.59,1334.13,1551.7,1325.39,1564.98,1298.59z"/>
			<path class="st11" d="M1533.73,1006.42c0,0-63.05,14.11-94.61,50.36c-28.69,32.95-111.8,193.83-134.67,251.7
				c-3.64,9.22,6.61,29.27,14.86,34.76c20.66,13.75,63.19,23.73,168.41,6.37l94.06-13.72c0,0,6.86-42.25-13.58-51.06l-152.31-2.11
				c0,0,87.24-90.29,104.09-116.25C1536.83,1140.52,1533.73,1006.42,1533.73,1006.42z"/>
			<path class="st14" d="M2120.44,1269.4c-29.63,13.75-205.85,25.3-222.77,20.43c-8.68-2.51-45.01-34.51-81.56-73.87
				c1.8,0.24,59.31,8.42,94.73,39.05c0,0,19.96,8.88,74.28,3.91C2039.44,1253.94,2109.2,1252.11,2120.44,1269.4z"/>
			<path class="st15" d="M1544.2,1000.54c0,0-65.97,14.74-87.63,33.01c-21.66,18.27-17.45,23.23-17.45,23.23s8.33,12.62,41.86-1.24
				c33.54-13.86,77.45-41.27,77.45-41.27S1557.09,1000.91,1544.2,1000.54z"/>
			<path class="st15" d="M1703.25,972.73c0,0,3.97,9.59,9.99,10.89c6.01,1.3,65.81,17.41,73.66,12.82s-14.08-23.3-45.61-24.64
				C1709.77,970.46,1703.25,972.73,1703.25,972.73z"/>
		</g>
		<g>
			<path class="st16" d="M1947.33,1317.31h-201.45l0,0c0-8.87,7.19-16.06,16.06-16.06h185.39V1317.31z"/>
			<polygon class="st16" points="1946.75,1097.91 2258.21,1097.91 2183.5,1317.31 1870.02,1317.31 			"/>
			<polygon class="st17" points="2262.79,1097.91 2188.09,1317.31 1874.61,1317.31 1951.34,1097.91 			"/>
			<path class="st6" d="M2094.87,1205.58c-1.93,8.38-10.3,15.18-18.68,15.18s-13.61-6.8-11.67-15.18
				c1.93-8.38,10.3-15.18,18.68-15.18S2096.81,1197.2,2094.87,1205.58z"/>
			<polygon class="st16" points="2262.79,1097.91 2188.09,1317.31 2042.26,1317.31 2216.93,1097.91 			"/>
		</g>
		<g>
			<g>
				<path class="st18" d="M2335.08,1493.38H1082.77l32.33-89.41c18.81-52.01,68.19-86.66,123.51-86.66h977.16
					c40.71,0,76.5,26.95,87.74,66.09L2335.08,1493.38z"/>
				<path class="st19" d="M2585.24,1493.38H1377.39l-2.35-45.09c-3.71-71.21,53.03-130.98,124.34-130.98h966.57
					c40.71,0,76.5,26.95,87.73,66.09L2585.24,1493.38z"/>
				<path class="st20" d="M2585.24,1493.38h-737.6c-40.98-71.11-78.31-135.22-102.94-176.07h721.25c40.71,0,76.5,26.95,87.73,66.09
					L2585.24,1493.38z"/>
			</g>
		</g>
	</g>
	<g>
		<g>
			<path class="st3" d="M1603.75,525.17h-122.71c-32.28,0-58.69-26.41-58.69-58.69V365.41c0-32.28,26.41-58.69,58.69-58.69h122.71
				c32.28,0,58.69,26.41,58.69,58.69v101.08C1662.44,498.76,1636.03,525.17,1603.75,525.17z"/>
			<g>
				<path class="st21" d="M1478.59,414.15c6.67,17.58,63.84,63.73,63.84,63.73s18.63-15.14,35.89-31.44
					c12.92-12.07,24.99-24.77,27.84-32.29c6.78-17.47-0.42-42.46-25.41-46.69c-24.88-4.24-38.33,21.81-38.33,21.81
					s-13.45-26.05-38.43-21.81c-4.34,0.74-8.15,2.12-11.43,4.02C1477.01,380.17,1473.09,399.75,1478.59,414.15z"/>
			</g>
		</g>
		<g>
			<path class="st3" d="M1553.57,633.06c-1.87-0.8-4.04,0.08-4.83,1.95c-0.8,1.87,0.08,4.04,1.95,4.83c1.87,0.8,4.04-0.08,4.83-1.95
				S1555.44,633.85,1553.57,633.06z"/>
			<path class="st3" d="M1526.96,602.57c-3.55-1.51-7.65,0.15-9.16,3.7c-1.51,3.55,0.15,7.65,3.7,9.16c3.55,1.51,7.65-0.15,9.16-3.7
				C1532.17,608.18,1530.51,604.08,1526.96,602.57z"/>
			<path class="st3" d="M1510.69,552.14c-5.64-2.39-12.15,0.24-14.54,5.87c-2.39,5.64,0.24,12.15,5.87,14.54
				c5.64,2.39,12.15-0.24,14.54-5.87C1518.96,561.05,1516.33,554.54,1510.69,552.14z"/>
		</g>
	</g>
	<g>
		<g>
			<g>
				<g>
					<path class="st15" d="M2279.67,1023.88c-5.29-3.05-10.57-6.19-15.84-9.43h-0.01v-0.01c-19.71-113.87-58.25-190.49-58.79-191.54
						c-1.22-2.39-0.99-7.74,6.8-8.41c6.82-0.6,11.04,0.88,12.27,3.28c0.14,0.26,8.73,18.5,20.32,51.37c1.05,2.96,2.11,6.04,3.2,9.23
						c2.37,6.96,4.84,14.48,7.37,22.53c0.94,3.02,1.9,6.1,2.85,9.27c0.17,0.55,0.34,1.11,0.51,1.67
						C2267.05,940.76,2274.65,979.37,2279.67,1023.88z"/>
				</g>
				<g>
					<path class="st15" d="M2446.22,1091.18c-2.19-0.53-4.39-1.07-6.6-1.63c-1.75-0.44-3.51-0.89-5.27-1.37
						c-0.69-9.03-1.53-17.9-2.5-26.62c-10.03-89.92-37.59-182.83-65.5-238.65c-1.22-2.39-0.99-7.74,6.8-8.41
						c6.82-0.6,11.04,0.88,12.26,3.28c0.05,0.1,1.46,3.08,3.88,8.74c34.46,80.59,48.49,148.85,54.94,231.8
						C2445.05,1069.03,2445.72,1079.99,2446.22,1091.18z"/>
				</g>
				<g>
					<path class="st15" d="M2232.69,880.36c-2.57,0-4.84-1.64-5.28-3.96c-0.5-2.59,1.46-5.05,4.38-5.49
						c4.65-0.7,114.36-17.08,163.47-3.42c2.83,0.79,4.4,3.46,3.51,5.96c-0.89,2.51-3.9,3.91-6.73,3.11
						c-46.64-12.98-157.33,3.55-158.45,3.72C2233.29,880.34,2232.99,880.36,2232.69,880.36z"/>
				</g>
				<g>
					<path class="st15" d="M2245.23,911.86c-2.57,0-4.83-1.64-5.28-3.96c-0.5-2.59,1.46-5.05,4.39-5.49
						c4.65-0.7,114.36-17.09,163.47-3.42c2.83,0.79,4.4,3.46,3.51,5.96c-0.89,2.51-3.9,3.91-6.73,3.11
						c-46.66-12.99-157.33,3.55-158.45,3.72C2245.83,911.84,2245.53,911.86,2245.23,911.86z"/>
				</g>
			</g>
		</g>
		<path class="st11" d="M2728.01,1011.81c3.77-8.05,7.33-16.58,10.67-25.49h-182.05c-3.51,0-6.38,2.87-6.38,6.38v12.74
			c0,3.5,2.86,6.38,6.38,6.38H2728.01z"/>
		<g>
			<g>
				<path class="st22" d="M2344.01,648.26c-0.56-2.16-7.43-25.19-43.35-18.51c0,0,17.99-1.79,22.73,5.24c0,0-14.05-6.88-23.09-1.66
					c-9.04,5.22-10.97,23.51-9.79,29.13c1.18,5.61,10.59,22.47,17.1,22.64c2.47,0.06,5.12-0.69,7.47-1.65
					c-1.07,2.93-2.06,6.11-2.89,9.61c-7.75,32.35,13.24,57.64,24.59,51.82c7.27-3.73,14.68,11.36,14.68,11.36l59.27-79.78
					C2410.72,676.46,2370.52,625.54,2344.01,648.26z"/>
				<path class="st23" d="M2682.79,1072.57c-45.1,31.29-118.82,40.11-202.37,25.69c-11.24-1.94-22.64-4.29-34.2-7.08
					c-2.19-0.53-4.39-1.07-6.6-1.63c-1.75-0.44-3.51-0.89-5.27-1.37c-0.69-0.18-1.38-0.37-2.08-0.55c-3.49-0.93-6.97-1.9-10.46-2.91
					h-0.01c-1.27-0.37-2.53-0.73-3.8-1.11c-5.7-1.67-11.4-3.45-17.13-5.34c0,0-0.01,0-0.02,0c-1.59-0.52-3.16-1.05-4.75-1.59
					c-8.01-2.7-16.05-5.59-24.11-8.7c-2.75-1.05-5.49-2.12-8.24-3.23l15.39-8.16l22.54-11.94c0,0,8.22,0.13,21.83,0.46
					c2,0.04,4.11,0.09,6.33,0.16c4.1,0.1,8.55,0.22,13.32,0.36c16.46,0.48,36.6,1.15,58.12,2.07
					c72.98,3.15,161.81,9.26,176.79,20.54C2679.56,1069.35,2681.12,1070.8,2682.79,1072.57z"/>
				<path class="st24" d="M2418,1083.61c-5.7-1.67-11.4-3.45-17.13-5.34c0,0-0.01,0-0.02,0c-1.59-0.52-3.16-1.05-4.75-1.59
					c-8.01-2.7-16.05-5.59-24.11-8.7c-2.75-1.05-5.49-2.12-8.24-3.23l15.39-8.16l35.85,15.21
					C2415.01,1071.8,2414.64,1076.53,2418,1083.61z"/>
				<path class="st25" d="M2623.46,960.72c-4.67-13.96-17.54-14.53-17.54-14.53s-12.36-0.9-21.26,1.71
					c-8.9,2.61-23.69-2.55-23.69-2.55s-54.25-18.86-66.93-26.75c-27.21-16.93-76.42-126.71-93.17-113.33c0,0-21.65,20.43-9.76,55.57
					c11.89,35.14,58.89,83.51,87.41,91.32c21.07,5.77,76.14,8.84,83.45,9.23c9.09,1.17,21.43,6.43,24.73,6.69
					c3.65,0.28,11.79-5.13,17.42-4.34C2624.66,966.64,2623.46,960.72,2623.46,960.72z"/>
				<path class="st26" d="M2410.58,806.54c-22.47,0.32-47.39-2.02-68.68-4.84c3.92-6.56,8.6-25.46,9.93-51.56v-0.09l7.92,0.42
					l37.47,2c0,0-0.04,0.55-0.11,1.5c-0.35,5.05-1.47,21.59-1.28,30.91c0.07,3.58,1.94,11.31,2.5,11.69
					C2402.42,800.09,2406.53,803.35,2410.58,806.54z"/>
				<path class="st25" d="M2395.82,784.88c-22.71-2.69-37.21-22.64-44-34.74c-0.08-0.15-0.17-0.29-0.25-0.44l8.17,0.77l37.36,3.5
					C2396.75,759.02,2395.63,775.56,2395.82,784.88z"/>
				<path class="st26" d="M2399.03,767.45c0,0-53.14-0.5-52.33-33.59s-5.49-55.44,28.47-56.52c33.96-1.08,40.24,11.71,42.66,22.82
					C2420.25,711.27,2412.88,766.72,2399.03,767.45z"/>
				<path class="st22" d="M2416.73,681.72c-7.96-10.17-14.22-8.14-17.77-5.24c-28.62-16.71-47.94,6.41-47.94,6.41
					c-4.17,23.65-21.64,36.81-21.64,36.81s9.53,6.23,32,1.07c6.86-1.58,13.08-6.27,18.4-12.01c-9.42,14.91-22,25.5-22,25.5
					c26.98-11.64,38.64-48.44,39.81-52.34c3.17,3,9.4,9.49,11.18,15.74c2.43,8.49,3.17,25.87,8.25,25.41
					C2417.03,723.07,2428.66,696.96,2416.73,681.72z"/>
				<path class="st27" d="M2451.38,867.88c0,0,34.16,44.15,41.92,44.85c7.76,0.69,4.14,30.08,0,37.64
					c-4.14,7.56-30.73,23.75-47.71,6.34C2428.61,939.3,2451.38,867.88,2451.38,867.88z"/>
				<path class="st28" d="M2501.3,1047.7c-1.53,1.65-4.11,2.84-8,3.4c-13.7,1.96-32.93,3.76-49.07,7.22
					c-4.41,0.94-8.59,2-12.38,3.24c-7.97,2.58-14.14,5.88-16.85,10.24c-2.22,3.58-7.47,5.59-14.13,6.47c0,0-0.01,0-0.02,0
					c-1.59-0.52-3.16-1.05-4.75-1.59c-8.01-2.7-16.05-5.59-24.11-8.7c-2.75-1.05-5.49-2.12-8.24-3.23c-3.27-1.3-6.54-2.64-9.82-4.03
					c-0.6-0.25-1.21-0.49-1.83-0.77c-2.1-0.88-4.2-1.78-6.3-2.7c0.63-22.36,9.04-72.57,3.08-82.55
					c-4.45-7.45-17.86-42.33-27.92-70.56c-1.16-3.23-2.27-6.38-3.32-9.38c-0.99-2.85-1.92-5.57-2.79-8.12
					c-1.93-5.69-3.49-10.56-4.55-14.11c-0.71-2.41-1.17-4.21-1.34-5.27c-0.18-1.11-0.42-2.53-0.65-4.2
					c-2.07-14.09-4.82-45.52,18.57-55.48c0,0,12.68-5.45,13.72-9.93c0.25-1.05,0.28-2.71,0.3-4.57v-0.02
					c0.05-6.05-0.11-14.34,5.79-11.98c0.48,0.2,0.96,0.4,1.44,0.63c7.3,3.39,15.25,10.02,27.61,9.38
					c8.02-0.42,15.38-2.76,20.31-3.66c3.15-0.59,5.3-0.58,5.98,0.91c1.72,3.74-2.94,8.73-0.11,11.25c0.01,0.01,0.01,0.01,0.02,0.02
					c0.03,0.03,0.06,0.06,0.09,0.09c0.02,0.02,0.04,0.03,0.07,0.05c0.02,0.02,0.05,0.03,0.08,0.06c0.01,0.01,0.02,0.02,0.03,0.02
					c4.1,3.09,41.6,26.26,53.32,59.83c0,0,3.18,8.09,5.89,18.89v0.01c0.22,0.88,0.44,1.77,0.65,2.68v0.01
					c1.73,7.41,3.12,15.82,3.12,23.64c0,1.6-0.02,3.21-0.06,4.84c-0.14,6.72-0.54,13.67-0.67,20.43c-0.03,1.56-0.05,3.1-0.05,4.63
					c0.01,3.95,0.15,7.81,0.55,11.48c0.01,0.06,0.01,0.11,0.02,0.16c0.06,0.61,0.13,1.21,0.21,1.81c0.75,5.51,1.5,10.91,2.29,16.06
					c1.02,6.68,2.07,12.96,3.13,18.52c0.25,1.33,0.51,2.62,0.77,3.86c1.09,5.29,2.18,9.79,3.28,13.22c1.05,3.29,2.1,5.58,3.13,6.61
					C2486.54,1015.34,2509.77,1038.57,2501.3,1047.7z"/>
				<path class="st26" d="M2629.17,961.55c-0.67-2.08-2.5-5.17-4.23-8.28c-1.73-3.11-14.84-16.56-20.01-17.94
					c-5.18-1.38-30.52,5.7-30.52,5.7s-99.7,1.31-115.59-8.46c-20.7-12.73-71-65.41-105.98-92.29
					c-16.68-12.82-29.89-19.77-34.77-13.75c0,0-13.32,12.79,3.45,44.38c0.93,1.77,1.96,3.6,3.1,5.48
					c21.41,35.61,103.65,104.21,136.69,106.46c33.04,2.26,116.85-25.81,116.85-25.81s8.72-2.38,13.21,1.07
					c4.48,3.45,21.81,2.81,24.27,5.17C2620.24,967.7,2630.29,965.01,2629.17,961.55z"/>
				<path class="st27" d="M2471.37,986.68c-1.3-1.01-2.92-2.25-4.8-3.71h-0.02c-8.05-6.22-21.06-16.17-36.12-27.48
					c-7-5.25-14.43-10.79-22.02-16.36c-17.31-12.72-35.41-25.7-50.84-36.01c-5.21-3.49-10.11-6.66-14.57-9.44h-0.02
					c-3.92-2.42-7.5-4.54-10.65-6.25c-1.91-1.04-3.66-1.94-5.24-2.68h-0.01c-2-0.93-3.71-1.6-5.09-1.98
					c-3.2-0.88-5.51,0.61-7.11,3.87c0.87,2.55,1.8,5.27,2.79,8.12c1.04,3.01,2.16,6.15,3.32,9.38
					c10.06,28.23,23.47,63.11,27.92,70.56c5.84,9.79-2.24,59.59-3.14,82.6c17.54,7.61,36.04,14.72,55.24,21
					c7.18-1.1,11.95-3.17,14.02-6.51c-0.81-9.75,2.75-18.73,8.52-26.69c1.64-2.26,3.46-4.44,5.42-6.54c0,0,0,0,0-0.01
					c3.77-4.05,8.03-7.79,12.43-11.15c17.2-13.19,36.41-20.9,36.41-20.9c-1.03-1.04-2.08-3.32-3.13-6.61
					C2473.55,996.47,2472.45,991.97,2471.37,986.68z"/>
				<path class="st27" d="M2464.97,946.43c-32.41-13.78-112.84-91.76-114-92.88c0.92,0.32,26.87-11.26,89.71,45.95
					c7.28,6.62,17.53,20.02,19.89,25.83C2463.42,932.33,2464.38,941.02,2464.97,946.43z"/>
				<path class="st28" d="M2325.09,824.34c0,0,15.87,2.3,31.4,14.38c15.53,12.08,93.09,87.84,106.07,91.02
					c12.98,3.18,40.91,1.68,40.58,9.85c-0.34,8.17-6.55,48.19-14.83,55.44s-52.1,10.7-71.08-1.38
					c-18.98-12.08-113.18-125.6-107.31-150.1C2315.77,819.05,2325.09,824.34,2325.09,824.34z"/>
				<path class="st27" d="M2361.58,807.59c-8.28-2.06-34.68,0-34.68,0s12.68-5.45,13.72-9.93c0.25-1.06,0.28-2.71,0.3-4.58
					c1.33,5.45,5.39,8.02,16.26,8.54C2368.05,802.14,2369.86,809.64,2361.58,807.59z"/>
			</g>
			<g>
				<path class="st27" d="M2676.29,979.8h-97.68c-1.79,0-3.26,1.47-3.26,3.26c0,1.79,1.47,3.26,3.26,3.26h97.68
					c1.79,0,3.26-1.47,3.26-3.26C2679.54,981.26,2678.08,979.8,2676.29,979.8z"/>
				<path class="st27" d="M2710.67,888.19L2710.67,888.19c-1.68-0.61-3.56,0.26-4.17,1.95l-33.39,91.8
					c-0.61,1.68,0.26,3.56,1.95,4.18c1.68,0.61,3.56-0.26,4.17-1.95l33.39-91.8C2713.24,890.69,2712.36,888.81,2710.67,888.19z"/>
			</g>
		</g>
	</g>
	<g>
		<path class="st3" d="M2093.57,682.79h-292.49c-8.04,0-14.62,6.58-14.62,14.63v148.37c0,8.05,6.58,14.63,14.62,14.63h24.73
			l-11.94,50.43l74.95-50.43h204.74c8.04,0,14.63-6.58,14.63-14.63V697.42C2108.2,689.38,2101.61,682.79,2093.57,682.79z"/>
		<g>
			<path class="st29" d="M2076.82,748.91h-258.38c-3.52,0-6.4,2.88-6.4,6.4l0,0c0,3.52,2.88,6.4,6.4,6.4h258.38
				c3.52,0,6.4-2.88,6.4-6.4l0,0C2083.22,751.79,2080.34,748.91,2076.82,748.91z"/>
			<path class="st29" d="M2076.82,777.55h-258.38c-3.52,0-6.4,2.88-6.4,6.4c0,3.52,2.88,6.4,6.4,6.4h258.38c3.52,0,6.4-2.88,6.4-6.4
				C2083.22,780.43,2080.34,777.55,2076.82,777.55z"/>
			<path class="st29" d="M2076.82,806.19h-258.38c-3.52,0-6.4,2.88-6.4,6.4c0,3.52,2.88,6.4,6.4,6.4h258.38c3.52,0,6.4-2.88,6.4-6.4
				C2083.22,809.07,2080.34,806.19,2076.82,806.19z"/>
			<path class="st29" d="M1826.37,717.22h109.69c4.19,0,7.62-3.43,7.62-7.62c0-4.19-3.43-7.62-7.62-7.62h-109.69
				c-4.19,0-7.62,3.43-7.62,7.62C1818.75,713.79,1822.18,717.22,1826.37,717.22z"/>
			<path class="st29" d="M1964.32,717.22h66c3.31,0,6.02-2.71,6.02-6.02v-3.19c0-3.31-2.71-6.02-6.02-6.02h-66
				c-3.31,0-6.02,2.71-6.02,6.02v3.19C1958.3,714.51,1961.01,717.22,1964.32,717.22z"/>
		</g>
	</g>
	<g>
		<path class="st19" d="M2784.82,592.29h-265.07c-7.29,0-13.25,5.96-13.25,13.25v134.46c0,7.29,5.96,13.25,13.25,13.25h22.41
			l-10.82,45.7l67.93-45.7h185.55c7.29,0,13.25-5.96,13.25-13.25V605.54C2798.07,598.25,2792.11,592.29,2784.82,592.29z"/>
		<g>
			<path class="st30" d="M2535.48,663.8h234.16c3.19,0,5.8-2.61,5.8-5.8c0-3.19-2.61-5.8-5.8-5.8h-234.16c-3.19,0-5.8,2.61-5.8,5.8
				C2529.68,661.2,2532.29,663.8,2535.48,663.8z"/>
			<path class="st30" d="M2769.64,678.16h-234.16c-3.19,0-5.8,2.61-5.8,5.8c0,3.19,2.61,5.8,5.8,5.8h234.16c3.19,0,5.8-2.61,5.8-5.8
				C2775.44,680.77,2772.83,678.16,2769.64,678.16z"/>
			<path class="st30" d="M2769.64,704.12h-234.16c-3.19,0-5.8,2.61-5.8,5.8l0,0c0,3.19,2.61,5.8,5.8,5.8h234.16
				c3.19,0,5.8-2.61,5.8-5.8l0,0C2775.44,706.73,2772.83,704.12,2769.64,704.12z"/>
			<path class="st30" d="M2542.66,623.49h99.41c3.8,0,6.9-3.11,6.9-6.9c0-3.8-3.11-6.9-6.9-6.9h-99.41c-3.8,0-6.9,3.11-6.9,6.9
				C2535.75,620.38,2538.86,623.49,2542.66,623.49z"/>
			<path class="st30" d="M2667.68,623.49h59.82c3,0,5.46-2.46,5.46-5.46v-2.89c0-3-2.46-5.46-5.46-5.46h-59.82
				c-3,0-5.46,2.46-5.46,5.46v2.89C2662.22,621.03,2664.68,623.49,2667.68,623.49z"/>
		</g>
	</g>
	<g>
		<path class="st31" d="M1349.36,608.56c-44.16,77.8-162.53,127.81-252.73,157.22c-124.05,40.93-312.1,62.94-381.96-45.76
			c-50.38-78.47,69.43-211.89,223.86-305.74l0.02-0.01c55.41-33.7,117.65-63.67,179.61-83.4
			C1297.13,273.93,1430.48,465.62,1349.36,608.56z"/>
		<g>
			<path class="st19" d="M692.13,353.05h286.42c7.88,0,14.32,6.45,14.32,14.32v145.29c0,7.88-6.44,14.32-14.32,14.32h-24.22
				l11.69,49.38l-73.4-49.38h-200.5c-7.88,0-14.32-6.44-14.32-14.32V367.37C677.81,359.49,684.25,353.05,692.13,353.05z"/>
			<g>
				<path class="st30" d="M708.53,430.32h253.02c3.45,0,6.27-2.82,6.27-6.27c0-3.45-2.82-6.27-6.27-6.27H708.53
					c-3.45,0-6.27,2.82-6.27,6.27C702.27,427.5,705.09,430.32,708.53,430.32z"/>
				<path class="st30" d="M961.56,445.84H708.53c-3.45,0-6.27,2.82-6.27,6.27c0,3.45,2.82,6.27,6.27,6.27h253.02
					c3.45,0,6.27-2.82,6.27-6.27C967.82,448.66,965,445.84,961.56,445.84z"/>
				<path class="st30" d="M961.56,473.88H708.53c-3.45,0-6.27,2.82-6.27,6.27l0,0c0,3.45,2.82,6.27,6.27,6.27h253.02
					c3.45,0,6.27-2.82,6.27-6.27l0,0C967.82,476.7,965,473.88,961.56,473.88z"/>
				<path class="st30" d="M846.38,386.76H953.8c4.1,0,7.46-3.36,7.46-7.46c0-4.1-3.36-7.46-7.46-7.46H846.38
					c-4.1,0-7.46,3.36-7.46,7.46C838.92,383.4,842.28,386.76,846.38,386.76z"/>
				<path class="st30" d="M754.07,386.76h64.63c3.24,0,5.9-2.65,5.9-5.9v-3.13c0-3.24-2.65-5.9-5.9-5.9h-64.63
					c-3.24,0-5.9,2.65-5.9,5.9v3.13C748.18,384.11,750.83,386.76,754.07,386.76z"/>
			</g>
		</g>
		<g>
			<g>
				<g>
					<path class="st14" d="M1188.43,404.67c-10.62-6.5-27.58,1.27-27.58,1.27c5.87-8.24,27.27-5.55,27.27-5.55
						c-42.63-9.07-51.53,18.18-52.26,20.74c-30.92-27.91-80.43,31.58-80.43,31.58l71.04,94.17c0,0,6.48-14.98,15.04-10.3
						c13.35,7.29,39.16-22.22,30.91-61.04c-0.89-4.2-1.96-8.02-3.15-11.55c2.77,1.21,5.92,2.19,8.86,2.19
						c7.77,0,19.5-19.82,21.09-26.48C1200.79,433.05,1199.05,411.17,1188.43,404.67z"/>
					<path class="st32" d="M1194.83,728.14c3.23-51.79-21.9-107.87-42.42-123.93c-3.23-2.54-6.36-4.17-9.26-4.77
						c-0.6-0.16-1.24-0.51-1.91-1.04c-5.78-4.65-13.57-23.17-14.82-51.58c-0.13-2.81-0.19-5.71-0.18-8.71c0,0,0.01,0,0-0.01
						l-2.85,0.56l-2.72,0.54h-0.01l-45.15,8.94c0.26,3.24,1.12,18.32,1.12,29.27c0.03,11.83-0.68,23.04-3.37,24.46
						c-0.07,0.01-0.74,0.06-1.45,0.13c-1.59,0.16-3.95,0.41-4.11,0.44c0,0-17.43,24.24-30.24,55.65c0,0.01,0,0.03,0,0.03l-0.01,0.01
						c-6.52,16.01-11.81,33.86-12.95,51.26c-0.71,10.81,0.29,20.34,2.01,29.6v0.01c2.54,13.67,6.83,28.01,9.37,43.83
						c21.31-4.97,41.78-10.79,60.75-17.04C1127.44,755.73,1161.53,743.28,1194.83,728.14z"/>
					<path class="st33" d="M1075.5,548.13c0,0,1.09,15.07,1.12,29.26c26.79-0.75,40.96-25.2,46.76-38.74L1075.5,548.13z"/>
					<path class="st14" d="M1128.33,533.44c0,0,14.04-22.18,17.41-41.16c2.41-13.54-4.49-63.75-54.94-56.52
						c0,0-14.65,1.44-28.42,10.75c-10.95,7.4-26.76,23.37-9.09,67.17l4.59,14.8L1128.33,533.44z"/>
					<path class="st32" d="M1066.56,561.57c0,0,63.39,1.05,63.43-38.44c0.04-39.49,8.25-65.95-32.22-68.28
						c-40.47-2.34-48.35,12.72-51.57,25.9C1042.98,493.92,1050.07,560.28,1066.56,561.57z"/>
					<path class="st14" d="M1068.9,453.88c0,0,17.36,46.33,43.99,53.17c26.64,6.85,38.19-0.29,38.19-0.29s-20.43-16.23-24.67-44.56
						C1126.41,462.21,1081.99,431.83,1068.9,453.88z"/>
					<path class="st14" d="M1073.2,457.64c0,0-12.96,10.34-16.12,20.4c-3.16,10.06-4.58,30.75-10.62,30.05
						c0,0-13.08-31.49,1.62-49.3C1063.67,439.9,1073.2,457.64,1073.2,457.64z"/>
					<path class="st32" d="M1225.12,712.61c-10.55,5.27-20.91,10.22-31.08,14.88c-5.92,2.72-11.78,5.34-17.56,7.85
						c-0.76,0.33-1.51,0.65-2.26,0.98c-7.39-26.67-13.61-48.57-13.61-48.57l-4.68-20.29l-9.44-40.9v-0.01l-6.54-28.3
						c0,0,0.45,0.04,1.28,0.14c2.08,0.24,6.55,0.78,12.15,1.67c10.18,1.62,24.12,4.38,34.3,8.47c0.08,0.03,0.15,0.06,0.23,0.1
						c0.19,0.07,0.37,0.14,0.54,0.22c5.14,2.15,9.23,4.66,11.25,7.55c0.01,0.01,0.02,0.02,0.03,0.03c0,0.01,0.01,0.02,0.02,0.03
						c0.01,0,0.01,0.01,0.01,0.02c0.28,0.42,0.53,0.84,0.72,1.28C1209.06,636.62,1217.63,674.26,1225.12,712.61z"/>
					<path class="st14" d="M1070.8,459.21c0,0,12.37,48.51,45.97,64.05c0,0-33.61-29.8-36.46-61.83
						C1077.45,429.4,1070.8,459.21,1070.8,459.21z"/>
					<path class="st32" d="M983.87,708.71c-0.94,4.2-1.82,8.57-2.64,13.12c-2.18,11.97-3.94,25.19-5.15,39.76
						c0,0-53.18-33.2-64.99-50.49c0-1.43,0.88-16.96-0.62-27.52c-0.55-3.88-1.43-7.1-2.78-8.7c-0.65-0.76-1.37-1.56-2.16-2.38
						c-0.01-0.01,0-0.01,0-0.01c-2.58-2.66-5.78-5.51-8.74-7.74c-3.1-2.34-5.92-3.99-7.46-4.03c-0.08-0.01-0.14-0.01-0.21,0
						c-0.1,0.01-0.21,0.03-0.33,0.08c-3.67,1.22-15.44,17.41-11.76,29.89c3.8,12.89,19.87,30.34,19.87,30.34
						s26.98,46.77,59.34,75.39c19.41-2.05,38.77-5.08,57.67-8.85c4.86-13.23,9.28-31.06,12.62-48.6v-0.01
						c5.16-27.11,8.67-56.81,10.95-80.86l0.01-0.01v-0.04c1.2-12.67,2.07-23.77,2.64-32.1c0.48-6.77,0.77-11.7,0.89-14.14
						c0.08-1.14,0.1-1.73,0.1-1.73s-0.83,0.32-2.29,1.16C1030.27,616.06,999.68,637.82,983.87,708.71z"/>
					<path class="st34" d="M1096.63,765.77c41.52-13.54,89.01-31.45,132.49-54.42c-8.41-36.33-19.16-75.83-28.46-93.54
						c-0.24-0.46-0.54-0.91-0.9-1.34c0-0.01,0-0.02-0.01-0.02c-0.01-0.01-0.02-0.02-0.02-0.03c-0.01-0.01-0.02-0.02-0.03-0.03
						c-0.72-0.89-1.67-1.74-2.81-2.56c0.09-0.12,0.14-0.19,0.14-0.19c-2.63-1.91-5.75-3.58-9.12-5.02c-0.08-0.04-0.15-0.07-0.23-0.1
						c-14.94-6.38-34.29-8.5-34.29-8.5s0,0.01-0.01,0.03c-0.05,0.23-0.4,1.77-0.97,4.15c-1.22,5.09-3.44,14.03-5.92,22.34v0.01
						c-2.6,8.67-5.49,16.64-7.83,18.78c-5.71,5.23-88.47,13.79-90.37,4.28c-1.82-9.09,21.78-44.51,23.53-47.63
						c-6.87,0.64-19.62,2.49-24.92,3.39c-9.4,1.61-15.15,5.64-15.69,6.26c-11.13,8.44-37.32,34.35-47.56,96.78
						c0,0,0.08,0.11,0.22,0.31c1.82,2.37,14.13,17.85,30.96,22.68c0.48,0.14,0.96,0.26,1.45,0.38c-0.91,15.18-3.71,36.84-6.36,56.59
						C1040.56,782.43,1070.06,774.54,1096.63,765.77z"/>
					<g>
						<path class="st19" d="M934.19,676.47l-29.34,8.79c-0.97,0.29-2-0.26-2.29-1.23l-16.77-55.95c-0.29-0.97,0.26-2,1.24-2.29
							l29.34-8.8c0.97-0.29,2,0.26,2.29,1.23l16.77,55.95C935.72,675.15,935.16,676.18,934.19,676.47z"/>
						<path class="st35" d="M926.57,678.76l-26.62,7.98c-1.73,0.52-3.55-0.46-4.06-2.19l-15.95-53.22
							c-0.52-1.73,0.46-3.55,2.19-4.06l26.62-7.98c1.73-0.52,3.55,0.46,4.06,2.19l15.95,53.22
							C929.27,676.42,928.29,678.24,926.57,678.76z"/>
					</g>
					<path class="st36" d="M1173.89,737.28c-2.78-7.32-6.03-13.49-8.18-12.99c-2.03,0.47-8.76,9.86-14.69,22.2
						C1158.61,743.55,1166.25,740.48,1173.89,737.28z"/>
					<path class="st32" d="M886.58,662.66c0,0,9.26-8.4,16.82-0.46c7.56,7.94-2.86,22.14-10.49,25.52
						c-7.63,3.38-10.16,5.3-10.16,5.3L886.58,662.66z"/>
				</g>
			</g>
			<path class="st0" d="M1078.94,538.13c0,0-1.1,4.65-12.67,3.94c0,0-9.72-0.6-9.42-5.71
				C1056.85,536.35,1066.27,532.71,1078.94,538.13z"/>
		</g>
	</g>
	<g>
		<polygon class="st5" points="2022.97,545.53 2120.71,577.48 2062.16,520.42 2056.22,534.36 2031.06,534.49 		"/>
		<polygon class="st19" points="2120.71,577.48 2044.85,519.78 1963.81,501.27 		"/>
		<polygon class="st19" points="2062.16,520.42 2120.71,577.48 2081.68,497.54 		"/>
	</g>
	<g>
		<polygon class="st5" points="650.04,854.18 552.3,886.13 610.85,829.07 616.79,843.01 641.95,843.13 		"/>
		<polygon class="st19" points="552.3,886.13 628.16,828.43 709.2,809.91 		"/>
		<polygon class="st19" points="610.85,829.07 552.3,886.13 591.33,806.19 		"/>
	</g>
	<path class="st37" d="M2756.71,1502.6H180.32c-1.87,0-3.4-1.53-3.4-3.39v-2.43c0-1.87,1.53-3.39,3.4-3.39h2576.39
		c1.87,0,3.4,1.53,3.4,3.39v2.43C2760.1,1501.07,2758.58,1502.6,2756.71,1502.6z"/>
</g>
</svg>
