<?xml version="1.0" encoding="utf-8"?>
<!-- Generator: Adobe Illustrator 26.0.1, SVG Export Plug-In . SVG Version: 6.00 Build 0)  -->
<svg version="1.1" xmlns="http://www.w3.org/2000/svg" xmlns:xlink="http://www.w3.org/1999/xlink" x="0px" y="0px"
	 viewBox="0 0 4500 2500" style="enable-background:new 0 0 4500 2500;" xml:space="preserve">
<style type="text/css">
	.st0{fill:#599DAD;}
	.st1{fill:#6BB7BF;}
	.st2{fill:#86D1CD;}
	.st3{fill:#EFCBAB;}
	.st4{fill:#FFEBDC;}
	.st5{fill:#EFCDAF;}
	.st6{fill:#163560;}
	.st7{fill:#E49963;}
	.st8{fill:#ED7D2B;}
	.st9{fill:#5AA9AD;}
	.st10{fill:#F99746;}
	.st11{fill:#D68D5D;}
	.st12{fill:#4A75CB;}
	.st13{fill:#2B478B;}
	.st14{fill:#233862;}
	.st15{fill:#FFB27D;}
	.st16{fill:#2C3A64;}
	.st17{fill:#ED985F;}
	.st18{fill:#F9DDBF;}
	.st19{fill:#C6916D;}
	.st20{fill:#EAC3A0;}
	.st21{fill:#E0B594;}
	.st22{fill:#D39E7A;}
	.st23{fill:#F4A269;}
	.st24{fill:#C65447;}
	.st25{fill:#1C468A;}
	.st26{fill:#B5453C;}
	.st27{fill:#9E332E;}
	.st28{fill:#DD6D22;}
	.st29{fill:#FFFFFF;}
	.st30{fill:#2E3552;}
</style>
<g id="Layer_1">
</g>
<g id="_x3C_Layer_x3E_">
	<g>
		<g>
			<g>
				<g>
					<path class="st0" d="M1336.81,1570.1c0,0-43.58-50.84-2.69-83.13c0,0,29.87-18.08,54.23-16.62c0,0-34.51,57.87-23.35,63.63
						c11.16,5.76,33.81-67.26,33.81-67.26s67.97-6.59,89.84,3.92c0,0-58.11,47.55-45.87,50.38s75-43.84,75-43.84
						s63.26,10.77,59.89,49.36c-3.38,38.59-25.17,50.51-34.75,49.48c-9.58-1.03-65.63-22.42-66.85-14.57
						c-1.22,7.85,32.51,33.51,56.14,34.71c0,0-44.6,49.19-74.24,34.99c-29.64-14.19-32.17-36.7-50.65-45.14
						c-18.48-8.44-34.25-8.42-26.62,0.19c7.63,8.61,41.07,16.97,51.64,35.67s20.05,31.3-10.62,26.68
						c-30.67-4.61-80.52-27.05-82.71-52.75C1336.81,1570.1,1336.81,1570.1,1336.81,1570.1z"/>
					<g>
						<path class="st0" d="M1546.59,1527.58c0,0-171.83-6.62-209.77,42.52c0,0-8.39,25.13-34.22,48.02l-4.02,10.97
							c0,0,29.77-31.39,40.43-33.29C1339,1595.8,1322.34,1534.92,1546.59,1527.58z"/>
						<path class="st0" d="M1302.6,1618.12c0,0-36.88,27.28-39.44,76.01l6.69,0.6c0,0,11.78-50.39,33.07-70.1
							C1324.21,1604.93,1302.6,1618.12,1302.6,1618.12z"/>
					</g>
				</g>
				<g>
					<path class="st1" d="M1184.45,1506.16c0,0,69.32-38.82,36.97-91.51c0,0-25.88-32.35-53.61-40.67c0,0,14.79,78.57,0,80.42
						c-14.79,1.85-10.17-88.73-10.17-88.73s-73.02-35.12-101.68-32.35c0,0,45.29,76.72,30.5,74.87
						c-14.79-1.85-65.63-79.49-65.63-79.49s-74.87-13.86-86.88,30.5c-12.02,44.37,7.39,66.55,18.49,69.32
						c11.09,2.77,82.26,1.85,80.42,11.09c-1.85,9.24-49.91,24.03-76.72,15.71c0,0,29.58,73.02,68.4,69.32
						c38.82-3.7,50.84-27.73,74.87-29.58c24.03-1.85,41.59,4.62,29.58,11.09c-12.02,6.47-52.69,2.12-72.1,18.62
						c-19.41,16.5-35.12,26.67,0.92,34.06c36.05,7.4,100.75,2.77,113.69-24.96C1184.45,1506.16,1184.45,1506.16,1184.45,1506.16z"/>
					<g>
						<path class="st1" d="M968.16,1373.06c0,0,194.11,62.85,216.29,133.1c0,0-0.93,31.43,18.49,67.48v13.87
							c0,0-20.33-47.14-31.43-53.61C1171.5,1533.89,1214.95,1472.89,968.16,1373.06z"/>
						<path class="st1" d="M1202.93,1573.64c0,0,29.93,45.46,12.87,100.79l-7.7-2.07c0,0,7.47-60.95-8.19-91.6
							C1184.25,1550.11,1202.93,1573.64,1202.93,1573.64z"/>
					</g>
				</g>
				<g>
					<path class="st2" d="M1294.73,1452.63c0,0-91.38-51.17-48.74-120.62c0,0,34.12-42.65,70.67-53.61c0,0-19.49,103.56,0,106
						c19.49,2.44,13.4-116.97,13.4-116.97s96.25-46.3,134.03-42.64c0,0-59.7,101.13-40.21,98.69
						c19.5-2.44,86.51-104.79,86.51-104.79s98.69-18.28,114.53,40.21c15.84,58.48-9.75,87.73-24.37,91.38
						c-14.62,3.65-108.44,2.44-106,14.62c2.44,12.19,65.79,31.68,101.13,20.71c0,0-38.99,96.26-90.16,91.38
						c-51.17-4.87-67.01-36.55-98.69-38.99s-54.83,6.09-38.99,14.62c15.84,8.53,69.45,2.79,95.04,24.55
						c25.59,21.75,46.3,35.15-1.22,44.9c-47.52,9.75-132.81,3.66-149.87-32.9C1294.73,1452.63,1294.73,1452.63,1294.73,1452.63z"/>
					<g>
						<path class="st1" d="M1579.84,1277.17c0,0-255.87,82.85-285.11,175.45c0,0,1.22,41.43-24.37,88.94v18.28
							c0,0,26.81-62.14,41.43-70.67C1311.79,1489.18,1254.53,1408.76,1579.84,1277.17z"/>
						<path class="st1" d="M1270.36,1541.57c0,0-39.46,59.92-16.96,132.86l10.15-2.73c0,0-9.85-80.34,10.79-120.75
							C1294.99,1510.55,1270.36,1541.57,1270.36,1541.57z"/>
					</g>
				</g>
				<path class="st3" d="M1291.65,1832.6c98.86,0,179-80.14,179-179h-358.01C1112.65,1752.46,1192.79,1832.6,1291.65,1832.6z"/>
				<path class="st4" d="M1335.7,1831.24c-7.28,0.91-14.7,1.37-22.24,1.37c-98.86,0-178.99-80.15-178.99-179h44.47
					C1178.94,1744.93,1247.33,1820.28,1335.7,1831.24z"/>
				<path class="st3" d="M1473.13,1841.71h-362.95l0,0c0-12.2,9.89-22.08,22.08-22.08h318.78
					C1463.24,1819.63,1473.13,1829.52,1473.13,1841.71L1473.13,1841.71z"/>
				<rect x="1106.77" y="1653.6" class="st5" width="367.96" height="5.49"/>
			</g>
			<g>
				<path class="st6" d="M3062.39,1781.12c0,0,3.71,59.83,15.29,60.69c1.54,0.11,58.71,0.11,58.71,0.11l72.98-0.42
					c0,0-0.48-17.58-21.81-21.3c-21.33-3.72-57.04-18.71-69.96-46.91C3104,1743.63,3062.39,1781.12,3062.39,1781.12z"/>
				<path class="st7" d="M3023.44,1073.51c0,0,34.45,19.59,44.1,19.59c9.65,0,47.51-7.32,58.06-1.93
					c10.55,5.39,29.66,27.09,33.24,34.18c6.44,12.75-25.95,7.12-41.26-3.74c-2.22-1.58-4.99-2.16-7.65-1.58
					c-7.93,1.73-24.41,4.72-32.36,1.78c-10.7-3.96-67.04-8.36-67.04-8.36L3023.44,1073.51z"/>
				<path class="st8" d="M2761.3,806.67c0,0,35.72,253.86,94.86,276.59c29.18,11.22,158.16,36.65,196.31,39.21
					c0,0,9.35-7.58,7.07-38.44c0,0-135.12-49.61-154.32-76.59c-28.57-40.15,17.73-164.03-18.11-201.74
					C2851.25,767.99,2790.87,751.78,2761.3,806.67z"/>
				<path class="st0" d="M2773.33,1341.5c10.42,17.67,22.47,34.24,34.89,49.92c38.39,48.46,80.18,88.42,87.46,126.19
					c1.45,7.53,3.74,15.63,6.75,24.18c3.04,8.65,6.8,17.75,11.14,27.15c16.29,35.38,40.65,75.03,64.97,111.08
					c42.05,62.3,81.58,114.29,81.58,114.29l72.51-3.09c-2.9-7.27-34.53-93.29-76.83-198.42c-17.18-42.68-35.45-88.07-53.07-131.85
					c-2.35-5.85-4.7-11.67-7.02-17.44c-5.39-13.4-10.69-26.59-15.87-39.43c-39.72-98.71-71.36-177.32-71.36-177.32
					s-158.77-60.14-175.26-21.17C2719.62,1237.71,2730.69,1269.19,2773.33,1341.5z"/>
				<path class="st6" d="M2894.49,1610.19c0,0-50.43,32.41-45.54,42.93c0.65,1.4,28.52,51.32,28.52,51.32l35.95,63.52
					c0,0,15.12-8.99,7.97-29.43c-7.16-20.44-11.47-58.93,6.85-83.95C2947.51,1628.24,2894.49,1610.19,2894.49,1610.19z"/>
				<path class="st1" d="M2919.16,1667.15c0,0-31.52-27.8-37.08-48.19c0,0,129.88-155.61,158.05-190.49
					c1.29-1.6,0.96-3.36-0.74-5.28c-21.27-23.98-257.58-72.74-288.47-120.79c-10.64-16.55-16.67-32.28-19.96-46.01
					c-7-29.32-1.47-49.57-1.47-49.57l236-6.83c0,0,196.5,122.35,218.75,205.78C3206.5,1489.19,2919.16,1667.15,2919.16,1667.15z"/>
				<path class="st9" d="M3039.39,1423.18c-21.27-23.98-257.58-72.74-288.47-120.79c-10.64-16.55-16.67-32.28-19.96-46.01v-29.87
					l100.31-15.78c0,0,28.45,87.53,112.69,120.35C3022.87,1361.84,3037.82,1416.39,3039.39,1423.18z"/>
				<path class="st7" d="M2900.93,790.67c-47.75,12.34-126.89-31.89-126.89-31.89s30.73-20.66,42.12-66.03
					c0.58-2.29,1.09-4.63,1.57-7.04c5-1.06,14.43-3.06,24.52-5.2l36.47,32.67c0,0-0.83,13.57-5.39,36.88
					c-0.79,4.07-1.7,8.43-2.75,13.09C2890.14,775.28,2900.93,790.67,2900.93,790.67z"/>
				<path class="st10" d="M2723.49,988.57c6.84,91.98-2.16,231.86,5.6,256.09c6.7,20.9,82.98,8.48,113.43,1.5
					c11.27-2.58,24.92-6.27,39.02-10.63c39.33-12.18,82.18-29.57,86.78-42.48c0.18-0.51,0.33-1,0.42-1.49
					c0.42-1.87,0.33-3.63-0.08-5.41c-1.53-6.58-7.44-13.7-8.13-29.99c-0.78-18.19-0.66-39.61-1.34-62.65
					c-0.04-2.59-0.07-5.42-0.35-8l-0.01-0.94c-0.01-0.5-0.02-0.98-0.04-1.47c-0.66-25.69-2-52.7-3.56-79.48
					c-0.99-16.82-2.13-33.48-3.45-49.44c-3.43-41.2-8.05-77.84-14.17-101.01c-10-37.76-32.04-62.39-52.11-80.44l-14.51-12.45
					c-16.2,3.54-35.34,1.19-52.66-7.01c-18.74-8.9-25.22-15.28-28.48-12.87C2746.55,773.79,2715.41,876.13,2723.49,988.57z"/>
				<path class="st8" d="M2881.54,1235.52c39.33-12.18,82.18-29.57,86.78-42.48c0.18-0.51,0.33-1,0.42-1.49
					c-0.02-1.8-0.05-3.61-0.08-5.41c-1.53-6.58-7.44-13.7-8.13-29.99c-0.78-18.19-0.66-39.61-1.34-62.65
					c-0.04-2.59-0.07-5.42-0.35-8l-0.01-0.94c-0.01-0.5-0.02-0.98-0.04-1.47l-158.99-202.56
					C2799.79,880.54,2692.92,1103.09,2881.54,1235.52z"/>
				<path class="st11" d="M2878.71,713.19c0,0-0.83,13.57-5.39,36.88c-35.61-11.51-51.76-43.68-57.16-57.32
					c0.58-2.29,1.09-4.63,1.57-7.04c5-1.06,14.43-3.06,24.52-5.2L2878.71,713.19z"/>
				<path class="st7" d="M2883.5,733.75c0,0-77.66-12.96-68.84-61.2c8.82-48.24,4.73-82.4,54.69-76.16
					c49.96,6.24,56.2,26.4,57.17,43.21C2927.49,656.42,2903.93,735.88,2883.5,733.75z"/>
				<g>
					
						<rect x="3218.14" y="963.65" transform="matrix(-0.9511 -0.309 0.309 -0.9511 5958.9707 3059.5403)" class="st12" width="7.2" height="188.55"/>
					
						<rect x="2998.32" y="1134.76" transform="matrix(-0.9998 -0.0214 0.0214 -0.9998 6169.4429 2347.2241)" class="st12" width="197.86" height="11.84"/>
				</g>
				<path class="st7" d="M3002.18,1153.93c0,0,63.56,16.76,87.4,15c23.83-1.76,43.66-13.09,46.66-19.01c3-5.92,9.3-16.42-6.93-14.48
					c-16.23,1.94-38.38,5.39-39.07,2.27c-0.69-3.12,13.23-2.82,13.23-2.82s4.21-6.12-1.09-6.34c-5.3-0.22-20.75-4.41-26.48-1.54
					c-5.74,2.87-11.04,13.46-15.23,13.02c-4.19-0.44-53.19-22.07-53.19-22.07L3002.18,1153.93z"/>
				<path class="st10" d="M2777.06,817.09c0,0,7.51,256.25,63.79,285.37c27.77,14.37,153.15,53.86,190.79,60.61
					c0,0,10.12-6.51,11.26-37.43c0,0-128.83-64.2-144.94-93.13c-23.97-43.06,35.71-161.08,4.24-202.51
					C2870.73,788.56,2812.5,765.79,2777.06,817.09z"/>
				<path class="st13" d="M2816.16,692.75c0,0-0.89-16.55,9.32-26.03c0,0-3.56-16.59,3.01-19.33c6.56-2.73,7.93,11.22,10.94,9.03
					c3.01-2.19,16.41-12.58,22.16-27.9c5.74-15.32,58.31,3.23,64.44,5.99c6.13,2.76,25.82-7.36,29.65-15.57
					c0,0-10.94-8.75-15.87-15.32c-4.92-6.57-39.39-50.88-87.53-38.29c-48.14,12.58-54.7,35.56-51.97,55.25
					C2803.05,640.28,2796.45,686.14,2816.16,692.75z"/>
			</g>
			<g>
				<path class="st14" d="M1356.32,791.12l41.43-3.96c3.32-0.32,6.46,1.57,7.75,4.65l31.28,75.3c1.96,4.73-1.21,10-6.3,10.49
					l-43.11,4.12c-3.38,0.32-6.56-1.63-7.8-4.79l-29.6-75.46C1348.12,796.77,1351.29,791.6,1356.32,791.12z"/>
				<path class="st13" d="M1881.69,1786.02l-21.99,11.67c0,0-118.88-126.05-147.46-247.02c-5.1-21.6-7.16-42.9-4.98-63.11
					c0,0-1.73-5.48-4.75-15.17c-0.13-0.42-0.27-0.86-0.4-1.29c-1.32-4.25-2.91-9.25-4.67-14.91c-5.74-18.28-13.62-43.29-22.61-71.77
					c-20.69-65.53-68.02-213.33-88.24-274.81l145.35-52.59c0,0,16.51,37.65,40.23,139.97c3.65,13.36,7.31,28.12,10.73,44.21
					c3.88,18.23,7.49,38.16,10.5,59.69c5.1,36.47,8.5,77.51,8.71,122.52c0.08,18.31-0.37,37.29-1.45,56.88
					c-0.79,14.36,1.34,33.5,5.34,55.28C1824.32,1635.14,1881.69,1786.02,1881.69,1786.02z"/>
				<path class="st14" d="M1961.27,1841.71h-117.51c0,0-4.39-18.74,3.32-31.5c6.83-11.28,4.21-17.71-0.85-27.05
					c5.32,2.18,12.21,4.16,19.79,3.73c5.86-0.34,12.05-2.99,17.48-6.15c5.06,5.77,26.71,30.31,33.48,35.17
					C1924.67,1821.44,1958.91,1819.47,1961.27,1841.71z"/>
				<path class="st14" d="M1793.41,1300.9l-91.29,170.2c-1.32-4.25-2.91-9.25-4.67-14.91c-5.74-18.28-13.62-43.29-22.61-71.77
					c-20.69-65.53-68.02-213.33-88.24-274.81l145.35-52.59c0,0,16.51,37.65,40.23,139.97c3.65,13.36,7.31,28.12,10.73,44.21
					C1786.78,1259.45,1790.4,1279.37,1793.41,1300.9z"/>
				<path class="st15" d="M1397.69,925.56c-0.73,0.63-35.56-34.98-54.16-54.7l18.63-11.34l101.72,63.86L1397.69,925.56z"/>
				<path class="st14" d="M1584.23,1804.93c0,0-2.74,19.96,4.92,36.78h48.69c0,0,0.37-14.54-12.04-32.77
					C1613.4,1790.71,1584.23,1804.93,1584.23,1804.93z"/>
				<path class="st16" d="M1680.17,506.06c0.66-3.11,8.96-36.44,60.67-29.26c0,0-25.81-1.39-32.11,8.97c0,0,19.6-10.74,32.85-3.88
					c13.25,6.86,17.21,32.85,15.89,40.94c-1.32,8.09-13.64,32.78-22.92,33.44c-3.52,0.25-7.36-0.65-10.78-1.86
					c1.72,4.11,3.33,8.59,4.76,13.53c13.19,45.68-15.13,83.15-31.71,75.59c-10.63-4.85-17.09,13.6-17.09,13.6l-92.97-106.44
					C1586.77,550.69,1640.83,475.37,1680.17,506.06z"/>
				<path class="st15" d="M1585.03,791.49c12.13,8.41,27.33,15.35,46.42,19.76c71.56,16.53,98.98-43.95,109.28-85.46
					c-9.76-5.58-18.94-6.81-24.24-7.45c-5.17-0.61-10.61-1.01-15.12-1.24c-8.04-6.15-20.01-31.34-22.66-70.45l-3.37,0.9l-56.4,15.44
					c0,0,2.59,17.93,3.85,34.87c0.98,13.26,1.13,25.93-1.38,29.03c-4.4,0.96-7.04,1.58-7.04,1.58s0,0.02-0.03,0.05
					C1613.6,729.76,1597.23,756.67,1585.03,791.49z"/>
				<path class="st17" d="M1618.95,663c0,0,2.59,17.91,3.85,34.87c31.95-3.2,46.78-33.62,52.55-50.31L1618.95,663z"/>
				<path class="st15" d="M1609.41,679.83c0,0,75.84-4.18,72.5-51.37c-3.33-47.19,4.21-79.51-44.35-78.83
					c-48.56,0.68-56.69,19.35-59.41,35.37C1575.44,601.01,1589.6,679.7,1609.41,679.83z"/>
				<path class="st16" d="M1578.53,558.59c10.69-15.03,19.76-12.55,25.03-8.64c39.77-25.73,68.86,6.01,68.86,6.01
					c7.5,33.49,33.3,51.14,33.3,51.14s-13.2,9.52-45.61,3.62c-9.9-1.8-19.08-8.09-27.06-15.94c14.43,20.67,33.08,34.97,33.08,34.97
					c-39.28-14.85-58.34-66.63-60.26-72.11c-4.33,4.48-12.79,14.16-14.94,23.2c-2.91,12.29-2.84,37.14-10.11,36.82
					C1580.82,617.64,1562.49,581.13,1578.53,558.59z"/>
				<path class="st15" d="M1597.14,724.67c0,0,123.55-30,177.27,14.31l-26.85,374.42l-241.63-58.37c0,0,6.8-23.69,53.13-86.69
					S1585.24,812.93,1597.14,724.67z"/>
				<path class="st13" d="M1669.16,1071.73c0,0-0.14,1.27-0.39,3.69c-0.11,1.04-0.25,2.3-0.41,3.76c-1.04,9.7-3.01,28.33-5.55,52.54
					c-6.63,63.5-17.04,165.49-24.12,245.99c-5.55,62.94-9.07,112.76-7.17,120.75c5.72,24.07,0,311.81,0,311.81
					c-20.54,9.85-51.67,0-51.67,0s-54.7-259.3-47.04-295.34c7.66-36.04-5.12-66.8-5.12-66.8c-42.47-197.8-37.82-307.43-29.39-359.91
					c2.45-15.26,5.23-25.69,7.26-32.05c1.72-5.4,2.91-7.88,2.91-7.88C1602.16,1023.1,1669.16,1071.73,1669.16,1071.73z"/>
				<path class="st14" d="M1747.56,1113.4c-28.82,12.1-57.54,17.4-84.75,18.31c-24.87,0.83-48.47-1.99-69.74-6.62
					c-46.33-10.08-81.62-28.73-94.78-36.87c2.45-15.26,5.23-25.69,7.26-32.05c28.52-20.31,99.05-0.88,156.66,20.67
					c2.06,0.78,4.1,1.55,6.14,2.33C1712.49,1096.05,1747.56,1113.4,1747.56,1113.4z"/>
				<path class="st10" d="M1791.06,845.78c-5.96,45.04-29.82,100.16-38.35,129.84c0,0,14.24,103.01,0.64,131.29
					c-1.54,3.23-3.46,5.48-5.8,6.5c-50.38,21.95-246.59,0.63-254.88-62.66c-3.01-23,74.74-103.89,79.27-113.71
					c1.88-4.06,3.88-17.22-5.23-44.5c-12.92,39.83-36.78,85.83-60.79,93.68c-26.38,8.63-130.68-69.09-130.68-69.09
					s-0.6-9.44,12.58-18.37c8.48-5.74,27.95-7.68,27.95-7.68l66.7,29.85c8.37-14.32,29.22-113.4,52.51-158.13
					c17.5-33.62,64.24-38.49,64.24-38.49s19.45,30.85,66.5,26.48c47.05-4.38,55.65-33.17,55.65-33.17s41.72,5.55,54.58,15.92
					C1778.19,735.32,1798.89,786.76,1791.06,845.78z"/>
				<path class="st8" d="M1752.72,975.61c0,0,14.24,103.01,0.64,131.29c-36.71-18.42-84.55-58.19-69.99-120.34
					c21.15-90.28,107.69-140.79,107.69-140.79C1785.1,890.82,1761.24,945.94,1752.72,975.61z"/>
				<path class="st15" d="M1721.38,906.37c0,0-52.25,7.57-56.42,11.47c-4.17,3.9-18.59,26.57-16.81,34.45
					c1.78,7.88,1.59,16.01,4.79,15.45c3.2-0.56,13.63-20.6,17.58-21.51c3.94-0.92,7.2-3.62,7.67-1.86
					c0.48,1.76-8.02,10.19-7.6,12.58c0.42,2.4,7.11-0.41,10.12-5.06c3-4.65,10.51-6.95,11.63-9.85c1.13-2.9,6.31-12.49,13.34-12.05
					C1712.71,930.43,1721.38,906.37,1721.38,906.37z"/>
				<polygon class="st15" points="1772.23,904.32 1721.38,906.37 1703.99,930.09 1773.14,932.4 				"/>
				<path class="st10" d="M1721.38,717.61c0,0,60.6,7.19,77.28,33.17c21.1,32.86,95.63,141.81,94.02,174.79
					c0,0-46.43,18.5-171.26,8.58c0,0-2.27-18.88,23.99-34.03c0,0,67.01-9.18,74.4-15.68l-49.75-52.87L1721.38,717.61z"/>
				<path class="st13" d="M1347.29,791.94l41.43-3.96c3.32-0.32,6.47,1.57,7.75,4.65l31.28,75.3c1.96,4.72-1.21,10-6.3,10.49
					l-43.11,4.12c-3.38,0.32-6.56-1.63-7.81-4.79l-29.6-75.46C1339.09,797.59,1342.26,792.42,1347.29,791.94z"/>
				<path class="st15" d="M1343.53,870.86c0,0-10.94-18.87-10.12-23.52c0.82-4.65,12.14-26.21,17.96-28.36
					c10.39-3.83,24.98-6.2,20.97,4.74c-2.65,7.22-13.13,17.69-11.31,20.97c1.82,3.28,1.12,14.82,1.12,14.82L1343.53,870.86z"/>
			</g>
			<g>
				<path class="st18" d="M2994.88,1684.71c-14.85,95.14-111.94,155.73-211.52,155.73h-197.24l15.43-554.55
					c0,0,188.2-60.4,235.46-2.94c41.41,50.34,153.71,249.6,159.62,367.55C2997.21,1662.34,2996.6,1673.76,2994.88,1684.71z"/>
				<path class="st19" d="M2471.29,1344.62c0,0,266.08-135.81,316.48-47.1c26.76,47.11,100.4,235.03,105.84,352.97
					c5.28,114.6-94,189.94-196.13,189.94h-181.39L2471.29,1344.62z"/>
				<path class="st3" d="M2521.32,1419.94c-2.24,11.54-23.78,22.25-55.75,31.73c-5.64,1.67-11.59,3.31-17.82,4.9
					c-108.81,27.79-301.53,43.3-319.9,35.11c-25.38-11.32-181.18-564.87-181.18-564.87s148.72-5.59,266.83-8.31
					c40.41-0.92,77.22-1.51,103.28-1.43c3.17,0.01,6.16,0.22,8.96,0.62c11.28,1.61,19.65,6.31,26.28,13.45
					c19.02,20.44,23.73,60.8,41.33,105.42c17.41,44.11,38.77,99.17,59.04,153.81c5.22,14.08,10.37,28.13,15.36,41.97
					c1.41,3.91,2.8,7.79,4.19,11.65C2501.87,1327.78,2524.94,1401.25,2521.32,1419.94z"/>
				<path class="st20" d="M2994.88,1684.71c-14.85,95.14-111.94,155.73-211.52,155.73h-96.75
					C2751.13,1796.71,2809.47,1661.94,2994.88,1684.71z"/>
				<path class="st21" d="M2471.93,1243.98c-4.95-0.81-11.32-1.86-18.56-3.09c-1.52-1.54-2.7-3.1-3.41-4.65
					c-2.91-6.4-0.92-24.79,2.42-45.89c-20.26-54.64-41.63-109.69-59.04-153.81c-17.6-44.62-22.32-84.98-41.33-105.42
					c-6.63-7.13-15-11.84-26.28-13.45c-15.7,0.22-32.28,0.49-49.38,0.81c-6.07,12.05-16.54,23.41-34.63,32.93
					c-80.69,42.47-20.83,130-20.83,130c0.58,0.39,32.02,62.89,32.02,62.89c-0.11-4.37,4.12-12.18,11.38-22.12
					c5.35,37.36,14.06,75.51,24.46,102.82c-5.7,28.85-20.33,71.83-28.16,104.69c-6.27,26.21-8.21,45.97,2.14,46.95
					c1.16,0.11,2.45,0.1,3.84,0c-0.65,9.14,1.14,18.76,6.3,28.74c20.22,39.09,117.49,46.13,192.68,46.27
					c31.97-9.47,53.51-20.19,55.75-31.73C2524.94,1401.25,2501.87,1327.78,2471.93,1243.98z"/>
				<path class="st22" d="M2839.56,1755.24c-38.07,52.9-96.48,86.8-161.53,85.75l-279.67,0.14l-133.99,0.07l150.75-496.51
					c0,0,381.57-37.96,428.62,12.66c21.85,23.5,34.11,129.93,40.98,237.22C2888.6,1655.06,2871,1711.62,2839.56,1755.24z"/>
				<path class="st19" d="M2839.56,1755.24c-38.07,52.9-96.48,86.8-161.53,85.75l-279.67,0.14
					c32.91-27.63,136.41-106.02,247.23-102.31C2729.6,1741.64,2796.3,1740.43,2839.56,1755.24z"/>
				<g>
					<path class="st23" d="M2495.74,997.18c0,0,23.24,34.39,36.49,106.67c11.61,63.31,21.79,86.68,38.55,99.66
						c16.76,12.98,110.15,51.31,110.15,51.31l-6.98,16.36c0,0-136.89-18.64-152.26-41.52s-74-158.05-69.45-189.18
						C2456.79,1009.36,2495.74,997.18,2495.74,997.18z"/>
					<g>
						<path class="st15" d="M2830.95,1752.32c-1.23,13.35,17.36,16.6,38.88,17.67c21.53,1.07,15.02,5.48,44.52,10.82
							c29.5,5.34,41.32-2.73,43.46-6.72c1.9-3.54-11.81-9.07-26.43-15.32c-1.84-0.78-3.68-1.58-5.52-2.39
							c-16.45-7.23-25.68-21.99-38.51-35.67c-12.15-12.96-23.68-54.44-23.68-54.44l-40.09-8.56c0,0,11.26,37.34,15.16,53.28
							c2.3,9.38-1.09,19.86-4.1,27.83C2833.01,1743.17,2831.37,1747.61,2830.95,1752.32z"/>
						<path class="st24" d="M2869.83,1769.99c21.53,1.07,15.02,5.48,44.52,10.82c29.5,5.34,41.32-2.73,43.46-6.72
							c1.9-3.54-11.81-9.07-26.43-15.32l-0.23,0.25c0,0-20.75,7.04-44.68,0.53c-19.52-5.3-38.38-16.96-51.83-20.73
							c-1.62,4.34-3.26,8.78-3.69,13.49C2829.72,1765.67,2848.3,1768.91,2869.83,1769.99z"/>
					</g>
					<path class="st6" d="M2431.74,1276.94c0,0,266.39-20.05,316.54,11.6c50.15,31.65,130.58,400.32,130.58,400.32
						s-4.96,3.98-16.05,5.18c-10.31,1.12-33.02-4.95-33.02-4.95s-115.59-164.96-123.74-206.51c-8.14-41.56-6.15-78.64-24.69-79.63
						c-18.54-0.99-249.66,28.1-284.62-33.49c-34.96-61.59-6.06-122.55-6.06-122.55L2431.74,1276.94z"/>
					<g>
						<path class="st15" d="M2729.01,1795.1c-1.23,13.35,17.35,16.6,38.88,17.67s15.02,5.48,44.52,10.83
							c29.5,5.34,41.32-2.73,43.46-6.72c1.9-3.54-11.81-9.07-26.43-15.32c-1.84-0.78-3.68-1.58-5.52-2.39
							c-16.45-7.23-25.68-21.99-38.51-35.67c-12.15-12.96-23.68-54.44-23.68-54.44l-40.09-8.56c0,0,11.26,37.34,15.16,53.28
							c2.3,9.38-1.09,19.86-4.1,27.83C2731.08,1785.96,2729.44,1790.4,2729.01,1795.1z"/>
						<path class="st24" d="M2767.9,1812.77c21.53,1.07,15.02,5.48,44.52,10.83c29.5,5.34,41.32-2.73,43.46-6.72
							c1.9-3.54-11.81-9.07-26.43-15.32l-0.23,0.25c0,0-20.74,7.04-44.68,0.53c-19.52-5.3-38.39-16.96-51.83-20.73
							c-1.62,4.34-3.26,8.78-3.69,13.49C2727.78,1808.45,2746.37,1811.7,2767.9,1812.77z"/>
					</g>
					<path class="st25" d="M2379.57,1293.44c0,0,236.64,11.2,285.53,44.78c48.88,33.58,114.9,405.1,114.9,405.1
						s-5.12,3.78-16.24,4.55c-10.35,0.71-32.8-6.23-32.8-6.23s-109.08-169.33-115.6-211.17s-3.09-78.82-21.58-80.53
						c-18.49-1.71-250.56,18.36-283.1-44.54C2278.14,1342.5,2379.57,1293.44,2379.57,1293.44z"/>
					<path class="st26" d="M2463.89,772.7c-10.5-6.93-23.54-8.48-32.72-8.55c2.52-2.28,7.21-2.85,7.21-2.85
						c-5.62-1.22-18.65,3.56-18.65,3.56c-76.89-35.67-97.04,79.7-97.18,106.81c-0.15,27.1-2.03,58.19-43.03,79.77
						c-80.69,42.47-20.83,129.99-20.83,129.99c0.58,0.4,32.03,62.9,32.03,62.9c-0.54-21.95,107.79-130.36,162.6-161.34
						c14.04-17.97,20.8-50.91,21.31-53.51c-3.96,26.21-9.46,40.7-14.04,48.76C2507.78,940.28,2491.73,791.06,2463.89,772.7z"/>
					<path class="st15" d="M2369.62,957.57c0,0,20.89,0.91,42.93,3c14.97,1.42,30.95,3.07,39.39,6.6
						c20.86,8.72,18.67,45.64-25.09,38.81C2383.08,999.14,2366.55,968.52,2369.62,957.57z"/>
					<path class="st15" d="M2450.1,984.5c0.26,0.14,6.24,31.77-22.41,30.5c-18.81-0.83-59.38-23.59-55.8-39.7
						c1.7-7.66,15.92-27.52,18.78-72.86l3.42,0.92l57.58,15.44c0,0-2.55,18.27-3.75,35.57
						C2446.91,968.89,2446.87,982.73,2450.1,984.5z"/>
					<path class="st23" d="M2451.66,918.8c0,0-2.55,18.27-3.75,35.57c-32.59-3.1-47.86-34.03-53.83-51.01L2451.66,918.8z"/>
					<path class="st26" d="M2388.48,896.6c0,0-15.31-28.18-17.87-51.57c-1.83-16.7,10.65-77.32,71.54-64.41
						c0,0,17.74,2.95,33.77,15.4c12.75,9.9,30.71,30.65,5.62,82.6l-6.8,17.66L2388.48,896.6z"/>
					<path class="st15" d="M2461.47,935.91c0,0-77.33-3.88-74.18-52c3.15-48.12-4.7-81.03,44.81-80.59
						c49.51,0.44,57.89,19.43,60.74,35.75C2495.7,855.38,2481.67,935.68,2461.47,935.91z"/>
					<path class="st26" d="M2467.36,804.48c0,0-24.91,55.04-57.93,61.23c-33.01,6.18-46.52-3.45-46.52-3.45s26.22-18.12,33.69-52.3
						C2396.6,809.96,2453.2,776.55,2467.36,804.48z"/>
					<path class="st26" d="M2461.82,808.72c0,0,14.96,13.66,17.99,26.17c3.03,12.51,3.08,37.85,10.49,37.48
						c0,0,18.49-37.31,2.03-60.21C2474.88,787.88,2461.82,808.72,2461.82,808.72z"/>
					<path class="st25" d="M2538.86,1280.96c-6.26,7.48-25.8,9.78-46.69,13.21c-16.43,2.71-33.7,6.12-45.97,13.33
						c-27.88,16.37-118.96,71.68-145.66,69.17c-10.35-0.97-8.41-20.73-2.14-46.95c9.87-41.4,30.52-98.89,30.52-123.89
						c0-13.64,4.54-45.93,10.6-82.85c0.49-2.98,1-5.97,1.5-9c11.99-71.77,28.6-156.4,28.6-156.4s18.52,40.42,54.62,40.42
						c36.08,0,27.7-30.82,27.7-30.82s32.93,3.87,40.71,12.25c7.79,8.38,27.52,44.61,31.43,54.49c0,0,0.8,12.57-30.33,18.56
						c0,0,7.58,34.12,8.48,56.87c0.67,16.8-11.47,69.4-14.96,102.11c-1.24,11.59-1.4,20.68,0.48,24.8
						c2.41,5.28,10.2,10.55,19.06,15.71C2524.41,1262.2,2546.28,1272.06,2538.86,1280.96z"/>
					<path class="st6" d="M2506.82,1251.96c19.98,34.06-54.18,44.3-66.45,51.51c-27.88,16.37-113.13,75.71-139.83,73.19
						c-10.35-0.97-8.41-20.73-2.14-46.95c9.87-41.4,30.52-98.89,30.52-123.89c0-13.64,4.54-45.93,10.6-82.85l32.13-30.85
						c0,0,34.43,88.99,67.25,103.58c17.2,7.64,35.16,12.68,48.37,15.74c-1.24,11.59-1.4,20.68,0.48,24.8
						C2490.17,1241.54,2497.96,1246.8,2506.82,1251.96z"/>
					<path class="st15" d="M2359.75,984.22c0,0-27.48-16.69-54.04,14.97c-26.56,31.65,18.88,257.9,58.24,269.53
						c43.72,12.91,170.02-2.07,170.02-2.07l-2.43-19.74c0,0-134.45-25.78-140.04-32.96
						C2385.91,1206.76,2373.71,987.86,2359.75,984.22z"/>
					<path class="st25" d="M2369.62,957.57c0,0-56.42,5.09-72.81,23.65c-16.39,18.56-21.18,68.85-21.18,68.85
						s49.69,40.11,109.56,24.55L2369.62,957.57z"/>
					<g>
						<rect x="2547.16" y="1277.22" class="st27" width="74.53" height="8.81"/>
						<path class="st27" d="M2605.86,1284.82c0.73-2.91,68.51-109.35,68.51-109.35h150.82l-75.65,106.49L2605.86,1284.82z"/>
						<path class="st26" d="M2612.2,1286.02c0.73-2.91,68.73-110.55,68.73-110.55h144.25l-71.97,110.55H2612.2z"/>
						<path class="st27" d="M2739.37,1231.1c-1.48,4.31-6.18,7.81-10.5,7.81c-4.31,0-6.61-3.5-5.12-7.81
							c1.48-4.31,6.18-7.81,10.5-7.81C2738.56,1223.29,2740.86,1226.79,2739.37,1231.1z"/>
					</g>
					<path class="st15" d="M2520.57,1245.73c0,0,43.78-8.47,48.72-6.35c4.94,2.12,32.48,26.83,29.66,31.77
						c-2.83,4.94-14.12,8.47-26.83,4.24c-12.71-4.24-40.25-6.35-45.19-12.71C2521.98,1256.32,2520.57,1245.73,2520.57,1245.73z"/>
				</g>
				<path class="st18" d="M2607.8,1689.69c-16,92.28-103.76,150.75-193.73,150.75h-181.39l14.19-554.55c0,0,173.06-60.4,216.53-2.94
					c38.08,50.34,141.36,249.6,146.79,367.55C2610.82,1664.14,2609.98,1677.23,2607.8,1689.69z"/>
				<path class="st20" d="M2607.8,1689.69c-16,92.28-103.76,150.75-193.73,150.75h-145.15
					C2336.86,1794.39,2428.35,1667.15,2607.8,1689.69z"/>
				<path class="st22" d="M2326.61,1840.04c-1.36,0.1-2.72,0.19-4.07,0.26c-2.87,0.15-5.74,0.25-8.63,0.29
					c-0.95,0.01-1.92,0.02-2.88,0.02h-181.39l-0.01-0.09c-3.45,0.04-6.95,0.09-10.47,0.13c-18.68,0.23-38.18,0.45-56.28,0.6
					c-3.03,0.03-6.02,0.05-8.96,0.08c-1.09,0.01-2.19,0.01-3.26,0.02c-17.88,0.12-33.69,0.18-44.97,0.1
					c-15.85-0.11-30.8-1.22-44.86-3.46c-18.13-2.87-34.77-7.57-49.99-14.3c-5.48-2.42-10.78-5.11-15.9-8.07
					c-6.88-3.96-13.45-8.44-19.67-13.41c-16.09-12.86-30.01-29.11-41.85-49.14c-8.24-13.93-15.48-29.68-21.74-47.38
					c-7.88-22.2-14.21-47.46-19.08-76.03c-6.97-40.78-10.95-88.26-12.16-143.16c-0.48-22.11-0.51-45.42-0.11-69.98
					c0.64-39.23,2.42-81.66,5.25-127.45c3.98-64.3,10.08-135.23,18.13-213.3c7.34-71.31,15.81-121.16,28.13-132.52
					c18.17-16.75,56.07-23.49,82.44-26.19c0.01,0,0.01,0,0.02,0c16.37-1.67,28.26-1.81,28.26-1.81c32.21,0,60.84,23.13,71.18,57.49
					c21.05,69.98,58.63,195.09,97.74,325.95c0.2,0.66,0.39,1.31,0.59,1.97c2.24,7.52,4.5,15.05,6.75,22.6
					c0.34,1.15,0.69,2.3,1.04,3.45c2.2-0.99,4.49-2.01,6.85-3.05c0.08-0.04,0.15-0.08,0.24-0.11c9.38-4.16,19.99-8.71,31.44-13.35
					h0.01c5.94-2.41,12.09-4.85,18.44-7.28c17.9-6.86,37.22-13.64,56.8-19.49c8.69-2.6,17.44-5.02,26.14-7.17
					c11.17-2.77,22.25-5.11,33.05-6.85c0.37-0.07,0.68-0.11,0.94-0.15c1.28-0.21,2.55-0.39,3.82-0.58
					c46.58-6.84,86.99-2.09,103.71,27.41c26.76,47.24,100.39,235.72,105.83,354C2512.19,1759.19,2423,1832.81,2326.61,1840.04z"/>
				<path class="st18" d="M2035.65,1348.89c0,0-93.1-379.28-99.82-411.16c-2.99-14.21-12.22-19.34-21.52-20.66
					c16.36-1.67,28.27-1.8,28.27-1.8c32.21,0,60.84,23.05,71.18,57.32c22.55,74.74,64.06,212.56,106.12,352.94
					C2117.75,1325.47,2035.65,1348.89,2035.65,1348.89z"/>
				<path class="st19" d="M2378.67,1531.28c-24.91-41.18-3.99-48.91-7.81-141.16c-3.82-92.24-46.77-84.63-64.59-102.46
					c-3.26-3.28-6.03-9.98-8.64-18.95c-1.27,0.19-2.54,0.37-3.82,0.58c-0.26,0.04-0.57,0.09-0.94,0.15
					c-10.8,1.74-21.88,4.08-33.05,6.85c-8.7,2.14-17.45,4.56-26.14,7.17c-19.58,5.84-38.91,12.63-56.8,19.49
					c-6.35,2.43-12.5,4.87-18.44,7.28c-15.42,96.77-39.27,530.45-39.27,530.45c0.2,0.21,0.38,0.41,0.58,0.6
					c19.47-0.17,40.53-0.4,60.55-0.64c2.86-0.04,5.69-0.08,8.5-0.11l0.01,0.09h136.88c0.18-0.1,0.37-0.22,0.56-0.33
					c0.12-0.08,0.25-0.15,0.37-0.23c36.76-22.8,28.55-68.54,19.9-97.22c-3.49-30.67-17.03-66.58-28.11-99.98
					c3.44-10.16,8.26-15.97,28.97-23.62c23.01-8.48,29.05-44.69,29.05-44.69c6.15,16.19-7.91,38.54-8.28,39.13
					C2368.94,1612.72,2403.31,1571.98,2378.67,1531.28z"/>
			</g>
			<g id="girl_2_5_">
				<path class="st17" d="M2072.88,1344.33c0,0-138.09,60.16-163.16,59.07c-25.07-1.09-179.52-47.05-179.52-47.05l3.93,26.57
					c0,0,119.2,68.55,160.87,72.44c41.03,3.83,181.32-36.82,194.86-45.41C2103.41,1401.38,2112.24,1353.02,2072.88,1344.33z"/>
				<path class="st14" d="M2093.63,1123.01c0,0,50.94-9.67,76.32,8.85c45.96,33.56,48.43,149.27,65.65,166.51
					c17.22,17.24,58.75,9.88,62.44,99.07c3.69,89.19-16.53,96.64,7.56,136.46c24.09,39.81-10.19,79.66-10.19,79.66
					s14.04-21.98,8.02-37.84c0,0-5.84,35.01-28.09,43.22c-22.24,8.21-25.53,14.22-29.08,26.26c0,0-189.75-97.23-189.95-166.19
					c-0.21-68.96-37.34-137.28-19.11-167.16c0,0-8.12,12.79-9.12,27.01c0,0-10.94-20.96,8.02-40.48
					c18.96-19.52-22.25-59.9-16.14-106.67C2024.15,1159.59,2046.68,1124.41,2093.63,1123.01z"/>
				<path class="st15" d="M2056.1,1410.04c12.13,8.41,27.33,15.35,46.42,19.76c71.56,16.53,98.98-43.95,109.28-85.46
					c-9.76-5.58-18.94-6.82-24.25-7.45c-5.17-0.61-10.61-1.02-15.12-1.24c-8.03-6.16-20.01-31.34-22.66-70.45l-3.37,0.9l-56.4,15.44
					c0,0,2.58,17.93,3.85,34.87c0.98,13.26,1.13,25.93-1.38,29.03c-4.4,0.95-7.04,1.58-7.04,1.58s0,0.02-0.03,0.05
					C2084.67,1348.31,2068.31,1375.22,2056.1,1410.04z"/>
				<path class="st17" d="M2090.02,1281.54c0,0,2.59,17.91,3.85,34.87c31.95-3.2,46.78-33.62,52.55-50.3L2090.02,1281.54z"/>
				<path class="st15" d="M2080.48,1298.37c0,0,75.84-4.19,72.51-51.37c-3.33-47.19,4.21-79.51-44.35-78.83
					c-48.56,0.68-56.69,19.35-59.41,35.37C2046.51,1219.55,2060.67,1298.24,2080.48,1298.37z"/>
				<path class="st14" d="M2049.6,1177.14c10.69-15.03,19.76-12.55,25.03-8.64c39.77-25.73,68.86,6.01,68.86,6.01
					c7.5,33.49,33.3,51.14,33.3,51.14s-13.19,9.52-45.61,3.62c-9.9-1.8-19.08-8.09-27.06-15.94c14.43,20.67,33.08,34.97,33.08,34.97
					c-39.28-14.85-58.34-66.63-60.26-72.11c-4.33,4.48-12.79,14.16-14.94,23.2c-2.92,12.29-15.49,31.49-22.76,31.17
					C2039.24,1230.54,2033.57,1199.68,2049.6,1177.14z"/>
				<path class="st26" d="M2233.41,1564.23c6.85-35.01,29.18-174.89,6.85-219.9c-8.02-16.17-39.49-17.63-74.02-16.21
					c-10.74,6.94-51.68,33.15-68.5,29.88c-0.18-0.03-0.51-0.11-0.94-0.22c-7.92-1.98-10.91-7.54-4.3-12.34
					c0.01-0.01-17.1-1.65-38.34,2.35c-11.99,2.26-44.35,19-44.35,19s16.29,29.43,40.32,39.59c-4.08,36.54,1.99,52.66,39.9,137.07
					c32.03,71.35-4.32,135.58-4.32,135.58s188.58,151.62,189.63,74.42C2276.12,1695.33,2224.65,1608.98,2233.41,1564.23z"/>
				<path class="st28" d="M2076.36,1843.89c-10.26-1.16-19.49-6.77-25.22-15.35c-0.91-1.36-1.88-2.83-2.92-4.39
					c-21.46-32.49-29.82-132.01-78.1-238.03c-11.76-25.81-53.98-30.45-65.48-59.63c0,0-28.33-94.57,54.23-97.36
					c82.56-2.79,221.11,263.13,223.3,291.02C2184.28,1747.17,2236.74,1861.98,2076.36,1843.89z"/>
				<path class="st27" d="M1748.21,1841.71h117.51c0,0,4.39-18.74-3.32-31.5c-6.83-11.28-4.21-17.71,0.84-27.05
					c-5.32,2.18-12.21,4.16-19.79,3.73c-5.85-0.34-12.04-2.99-17.47-6.15c-5.06,5.77-26.71,30.31-33.48,35.17
					C1784.82,1821.44,1750.58,1819.47,1748.21,1841.71z"/>
				<path class="st27" d="M2221.02,1381c0,0,15.29,139.15-83.89,168.3s-127.34-128.03-47.26-139.33
					C2169.95,1398.66,2221.02,1381,2221.02,1381z"/>
				<path class="st8" d="M1901.95,1456.47c-7.08,53.04-34.71,220.48-83.45,302.16c-15.72,26.34,39.59,41.1,39.89,41.02
					c7.42-1.94,19.78-13.77,25.47-18.9c39.57-35.66,119.9-136.65,119.9-217.61c0-39.48,0.69-114.87-28.01-134.03
					C1958.07,1417.3,1904.76,1435.4,1901.95,1456.47z"/>
				<path class="st10" d="M2146.42,1841.71c0,0-4.35-6.06-11.95-17.57c-9.04-13.69-19.04-40.62-31.17-75.15
					c-12.75-36.25-27.87-80.84-46.76-127.24c-5.83-14.32-12.02-28.82-18.61-43.29c-11.76-25.81-44.11-22.24-55.62-51.42
					c0,0-44.91-101.15,37.65-103.94c82.56-2.79,239.44,270.58,248.46,297.05C2278.28,1749.13,2326.43,1869.48,2146.42,1841.71z"/>
				<path class="st26" d="M1834.47,1841.71h117.51c0,0,4.39-18.74-3.32-31.5c-6.83-11.28-4.21-17.71,0.85-27.05
					c-5.32,2.18-12.21,4.16-19.79,3.73c-5.85-0.34-12.05-2.99-17.47-6.15c-5.06,5.77-26.71,30.31-33.48,35.17
					C1871.08,1821.44,1836.84,1819.47,1834.47,1841.71z"/>
				<path class="st8" d="M2103.31,1748.99c-12.75-36.25-27.87-80.84-46.76-127.24c4.94-35.16,15.58-65.91,33.48-78.3
					C2090.03,1543.44,2133.45,1677.97,2103.31,1748.99z"/>
				<path class="st10" d="M1970.54,1452.7c-7.08,53.05-17.04,224.24-65.78,305.92c-15.71,26.34,39.59,41.1,39.89,41.02
					c7.42-1.94,19.77-13.77,25.47-18.9c39.57-35.66,119.9-136.65,119.9-217.61c0-39.48-46.33-111.71-75.03-130.87
					C1997.31,1420.47,1973.35,1431.64,1970.54,1452.7z"/>
				<g>
					<path class="st27" d="M1716.17,1288l120.34-12.78c3.51-0.37,6.83,1.67,8.08,4.96l43.06,113.14c1.89,4.96-1.64,10.31-6.95,10.52
						l-119.41,4.82c-3.24,0.13-6.23-1.77-7.48-4.76l-43.99-105.17C1707.82,1293.92,1711,1288.55,1716.17,1288z"/>
					<path class="st26" d="M1705.72,1289.09l120.34-12.78c3.51-0.37,6.83,1.66,8.08,4.96l43.06,113.14
						c1.89,4.96-1.64,10.31-6.95,10.52l-119.41,4.82c-3.24,0.13-6.23-1.77-7.48-4.76l-43.99-105.17
						C1697.37,1295.01,1700.55,1289.64,1705.72,1289.09z"/>
					<path class="st27" d="M1772.42,1341.92c-1.47-4.04,0.61-7.31,4.65-7.31s8.5,3.27,9.97,7.31c1.47,4.04-0.61,7.31-4.65,7.31
						C1778.36,1349.23,1773.89,1345.95,1772.42,1341.92z"/>
					<path class="st27" d="M1709.32,1299.78c-0.72-1.98,0.3-3.59,2.28-3.59c1.98,0,4.18,1.61,4.9,3.59c0.72,1.99-0.3,3.59-2.29,3.59
						S1710.04,1301.77,1709.32,1299.78z"/>
				</g>
				<path class="st15" d="M2211.8,1344.33c0,0-166.79,61.42-191.84,60.16c-16.2-0.81-150.84-48.14-150.84-48.14l-12.09,22.87
					c0,0,131.04,84.22,167.07,83.81c71.12-0.82,191.14-44.48,204.68-53.06C2242.33,1401.38,2251.16,1353.02,2211.8,1344.33z"/>
				<path class="st15" d="M1869.12,1356.36c0,0-12.09-18.6-24.12-19.15c-12.04-0.55-32.82,8.21-39.93,9.57
					c-7.11,1.37-27.35,7.93-21.33,17.78c6.02,9.85,33.92,12.04,45.95,9.85c12.04-2.19,27.35,4.81,27.35,4.81L1869.12,1356.36z"/>
				<path class="st15" d="M1848.28,1337.78c0,0-19.14-8.78-24.61-10.42c-5.47-1.64-4.38,0.03-2.74,5.21
					c1.64,5.18,11.49,10.13,11.49,11.76C1832.42,1345.96,1848.28,1337.78,1848.28,1337.78z"/>
				<path class="st15" d="M1718.11,1346.51c0,0,12.07-19.09,16.02-19.87c12.04-2.38,12.04,13.47,9.48,23.7
					c-2.74,10.97-12.01,21.32-14.58,20.42C1726.48,1369.85,1715.28,1356.6,1718.11,1346.51z"/>
				<path class="st15" d="M1717.66,1350.34c0,0-3.86,21.41,16.48,32.59L1717.66,1350.34z"/>
				<path class="st29" d="M2066.28,1271.23c0,0,7.17-2.84,27.34-1.2c0,0-1.07,7.87-15.95,8.65
					C2069.25,1279.12,2066.28,1271.23,2066.28,1271.23z"/>
				<path class="st26" d="M2125.87,1374.62c0,0,14.92,47.22,66.15,57.97c0,0,84.6-26.06,42.48-83.7
					C2234.5,1348.89,2192.85,1317.95,2125.87,1374.62z"/>
			</g>
			<path class="st30" d="M3496.21,1850.59H844.79c-1.74,0-3.16-1.42-3.16-3.16v-3.82c0-1.74,1.42-3.16,3.16-3.16h2651.41
				c1.74,0,3.16,1.42,3.16,3.16v3.82C3499.37,1849.16,3497.95,1850.59,3496.21,1850.59z"/>
		</g>
	</g>
</g>
</svg>
